<svg width="144" height="144" viewBox="0 0 144 144" fill="none" xmlns="http://www.w3.org/2000/svg">
<g clip-path="url(#clip0_904_220)">
<path opacity="0.6" d="M128.48 55.5399C141.336 62.7963 141.3 81.4386 128.417 88.6461L33.9733 141.482C21.4095 148.511 5.9725 139.346 6.00004 124.876L6.20183 18.8444C6.22937 4.37355 21.7012 -4.73188 34.2381 2.34462L128.48 55.5399Z" fill="url(#paint0_linear_904_220)"/>
<path d="M43.0226 44.6729C39.3714 44.6729 36.2375 45.6161 33.6209 47.5026C31.0042 49.3281 28.418 52.0361 25.8622 55.6264L20.568 51.7927C22.0285 49.6628 23.5193 47.746 25.0407 46.0421C26.562 44.3382 28.205 42.9082 29.9697 41.752C31.7953 40.5958 33.8034 39.7134 35.9941 39.1049C38.2456 38.4964 40.771 38.1921 43.5702 38.1921C46.4911 38.1921 49.1382 38.6485 51.5115 39.5613C53.9456 40.4741 56.045 41.752 57.8097 43.395C59.5744 44.9772 60.9436 46.894 61.9172 49.1456C62.8909 51.3363 63.3777 53.7399 63.3777 56.3566C63.3777 58.7298 63.043 60.8901 62.3736 62.8374C61.7651 64.7847 60.7915 66.7319 59.4527 68.6792C58.114 70.5656 56.4405 72.5433 54.4324 74.6123C52.4243 76.6205 50.0206 78.8416 47.2214 81.2757L30.1523 96.4279H64.0167V103H19.3814V97.432L42.5662 76.9856C45.0003 74.7949 47.0692 72.8172 48.7731 71.0525C50.477 69.2877 51.8462 67.6447 52.8807 66.1234C53.976 64.5412 54.7367 63.0199 55.1626 61.5595C55.6494 60.0382 55.8929 58.4864 55.8929 56.9043C55.8929 55.0178 55.5277 53.3444 54.7975 51.8839C54.1281 50.3626 53.2153 49.0847 52.0591 48.0502C50.903 46.9549 49.5338 46.1334 47.9516 45.5857C46.3694 44.9772 44.7264 44.6729 43.0226 44.6729ZM122.401 85.657C122.401 88.3954 121.793 90.8904 120.576 93.1419C119.359 95.3934 117.655 97.3103 115.464 98.8925C113.334 100.475 110.809 101.722 107.888 102.635C104.967 103.487 101.803 103.913 98.3952 103.913C94.9875 103.913 91.8231 103.487 88.9022 102.635C85.9813 101.722 83.4255 100.475 81.2348 98.8925C79.105 97.3103 77.4315 95.3934 76.2145 93.1419C74.9974 90.8904 74.3889 88.4258 74.3889 85.7483C74.3889 81.9146 75.606 78.6894 78.0401 76.0728C80.535 73.3953 83.6993 71.3567 87.533 69.9571C86.0726 69.2877 84.673 68.4967 83.3342 67.5839C81.9955 66.6102 80.8088 65.5453 79.7744 64.3891C78.8007 63.1721 78.0096 61.8029 77.4011 60.2816C76.8534 58.7603 76.5796 57.0564 76.5796 55.17C76.5796 52.675 77.1577 50.393 78.3139 48.3241C79.5309 46.2551 81.1131 44.4599 83.0604 42.9386C85.0685 41.4173 87.3809 40.2611 89.9976 39.47C92.6751 38.6181 95.4743 38.1921 98.3952 38.1921C101.316 38.1921 104.085 38.6181 106.702 39.47C109.379 40.2611 111.691 41.4173 113.639 42.9386C115.647 44.4599 117.229 46.2551 118.385 48.3241C119.602 50.393 120.211 52.675 120.211 55.17C120.211 57.0564 119.907 58.7603 119.298 60.2816C118.75 61.8029 117.959 63.1721 116.925 64.3891C115.951 65.5453 114.795 66.6102 113.456 67.5839C112.117 68.4967 110.718 69.2877 109.257 69.9571C113.091 71.3567 116.225 73.3649 118.659 75.9815C121.154 78.5982 122.401 81.8233 122.401 85.657ZM113 55.6264C113 54.0442 112.635 52.5837 111.904 51.245C111.174 49.8454 110.14 48.6588 108.801 47.6851C107.523 46.6506 105.971 45.8595 104.146 45.3119C102.381 44.7642 100.464 44.4904 98.3952 44.4904C96.3262 44.4904 94.3789 44.7642 92.5534 45.3119C90.7886 45.8595 89.2369 46.6506 87.8982 47.6851C86.6203 48.6588 85.6162 49.8149 84.886 51.1537C84.1557 52.4925 83.7906 53.9833 83.7906 55.6264C83.7906 57.3911 84.1557 59.0037 84.886 60.4641C85.677 61.8637 86.7115 63.0808 87.9894 64.1153C89.3282 65.1498 90.8799 65.9713 92.6446 66.5798C94.4702 67.1275 96.3871 67.4013 98.3952 67.4013C100.403 67.4013 102.29 67.1275 104.054 66.5798C105.88 65.9713 107.432 65.1498 108.71 64.1153C110.048 63.0808 111.083 61.8637 111.813 60.4641C112.604 59.0037 113 57.3911 113 55.6264ZM115.099 85.5658C115.099 83.7402 114.643 82.0972 113.73 80.6367C112.878 79.1154 111.691 77.8375 110.17 76.803C108.71 75.7077 106.945 74.8557 104.876 74.2472C102.868 73.6387 100.708 73.3344 98.3952 73.3344C96.0828 73.3344 93.8921 73.6387 91.8231 74.2472C89.815 74.8557 88.0503 75.7077 86.529 76.803C85.0077 77.8375 83.821 79.1154 82.9691 80.6367C82.1172 82.0972 81.6912 83.7402 81.6912 85.5658C81.6912 87.2088 82.0563 88.7605 82.7865 90.221C83.5776 91.6814 84.673 92.9593 86.0726 94.0547C87.533 95.15 89.2978 96.0324 91.3667 96.7018C93.4357 97.3103 95.7786 97.6146 98.3952 97.6146C101.012 97.6146 103.355 97.3103 105.424 96.7018C107.493 96.0324 109.227 95.15 110.627 94.0547C112.087 92.9593 113.182 91.6814 113.913 90.221C114.704 88.7605 115.099 87.2088 115.099 85.5658Z" fill="#F6D813"/>
</g>
<defs>
<linearGradient id="paint0_linear_904_220" x1="138.101" y1="144.252" x2="14.8912" y2="132.365" gradientUnits="userSpaceOnUse">
<stop stop-color="#24AC9D"/>
<stop offset="1" stop-color="#3B6FB5"/>
</linearGradient>
<clipPath id="clip0_904_220">
<rect width="144" height="144" fill="white"/>
</clipPath>
</defs>
</svg>
