<svg width="144" height="144" viewBox="0 0 144 144" fill="none" xmlns="http://www.w3.org/2000/svg">
<g clip-path="url(#clip0_904_214)">
<path opacity="0.6" d="M128.48 55.5399C141.336 62.7963 141.3 81.4386 128.417 88.6461L33.9733 141.482C21.4095 148.511 5.9725 139.346 6.00004 124.876L6.20183 18.8444C6.22937 4.37355 21.7012 -4.73188 34.2381 2.34462L128.48 55.5399Z" fill="url(#paint0_linear_904_214)"/>
<path d="M36.8903 25C30.3969 25 25.0482 30.3487 25.0482 36.8421V81.5789C25.0482 88.0724 30.3969 93.4211 36.8903 93.4211H107.943C114.436 93.4211 119.785 88.0724 119.785 81.5789V36.8421C119.785 30.3487 114.436 25 107.943 25H36.8903ZM36.8903 32.8947H107.943C110.171 32.8947 111.89 34.6145 111.89 36.8421V81.5789C111.89 83.8066 110.171 85.5263 107.943 85.5263H36.8903C34.6627 85.5263 32.9429 83.8066 32.9429 81.5789V36.8421C32.9429 34.6145 34.6627 32.8947 36.8903 32.8947ZM32.9429 98.6842C30.1512 98.6842 27.4738 99.7933 25.4997 101.767C23.5256 103.741 22.4166 106.419 22.4166 109.211C22.4166 112.002 23.5256 114.68 25.4997 116.654C27.4738 118.628 30.1512 119.737 32.9429 119.737C35.7347 119.737 38.4121 118.628 40.3862 116.654C42.3602 114.68 43.4693 112.002 43.4693 109.211C43.4693 106.419 42.3602 103.741 40.3862 101.767C38.4121 99.7933 35.7347 98.6842 32.9429 98.6842ZM59.2587 98.6842C56.467 98.6842 53.7896 99.7933 51.8155 101.767C49.8414 103.741 48.7324 106.419 48.7324 109.211C48.7324 112.002 49.8414 114.68 51.8155 116.654C53.7896 118.628 56.467 119.737 59.2587 119.737C62.0505 119.737 64.7279 118.628 66.702 116.654C68.676 114.68 69.785 112.002 69.785 109.211C69.785 106.419 68.676 103.741 66.702 101.767C64.7279 99.7933 62.0505 98.6842 59.2587 98.6842ZM85.5745 98.6842C82.7828 98.6842 80.1054 99.7933 78.1313 101.767C76.1572 103.741 75.0482 106.419 75.0482 109.211C75.0482 112.002 76.1572 114.68 78.1313 116.654C80.1054 118.628 82.7828 119.737 85.5745 119.737C88.3663 119.737 91.0437 118.628 93.0177 116.654C94.9918 114.68 96.1008 112.002 96.1008 109.211C96.1008 106.419 94.9918 103.741 93.0177 101.767C91.0437 99.7933 88.3663 98.6842 85.5745 98.6842ZM111.89 98.6842C109.099 98.6842 106.421 99.7933 104.447 101.767C102.473 103.741 101.364 106.419 101.364 109.211C101.364 112.002 102.473 114.68 104.447 116.654C106.421 118.628 109.099 119.737 111.89 119.737C114.682 119.737 117.359 118.628 119.334 116.654C121.308 114.68 122.417 112.002 122.417 109.211C122.417 106.419 121.308 103.741 119.334 101.767C117.359 99.7933 114.682 98.6842 111.89 98.6842Z" fill="#F6D813"/>
<path d="M63.0485 44.0905C63.682 43.7058 64.3895 43.5097 65.1011 43.5003C65.8127 43.491 66.5271 43.6717 67.1699 44.0402L85.8622 54.7544C87.1811 55.5108 88 56.9423 88 58.5002C88 60.058 87.1811 61.4895 85.8622 62.2459L67.1699 72.9601C66.5427 73.318 65.8475 73.5 65.1538 73.5C64.4248 73.5 63.6965 73.3042 63.0485 72.9099C61.7795 72.1385 61 70.7315 61 69.2143V47.786C61 46.2689 61.7795 44.8619 63.0485 44.0905Z" fill="#F6D813"/>
</g>
<defs>
<linearGradient id="paint0_linear_904_214" x1="138.101" y1="144.252" x2="14.8912" y2="132.365" gradientUnits="userSpaceOnUse">
<stop stop-color="#24AC9D"/>
<stop offset="1" stop-color="#3B6FB5"/>
</linearGradient>
<clipPath id="clip0_904_214">
<rect width="144" height="144" fill="white"/>
</clipPath>
</defs>
</svg>
