<svg width="144" height="144" viewBox="0 0 144 144" fill="none" xmlns="http://www.w3.org/2000/svg">
<path opacity="0.6" d="M142.249 118.976C146.208 133.197 133.001 146.354 118.795 142.341L14.6525 112.919C0.798584 109.006 -3.63695 91.6098 6.61496 81.3968L81.733 6.56412C91.985 -3.64885 109.364 0.852909 113.225 14.7217L142.249 118.976Z" fill="url(#paint0_linear_904_217)"/>
<path d="M75.1364 27C70.7821 27 67.1818 30.603 67.1818 34.9545V46.3182C67.1818 50.6697 70.7821 54.2727 75.1364 54.2727H82.8157L88.6351 60.0922C89.2745 60.7312 90.1415 61.0903 91.0455 61.0903C91.9494 61.0903 92.8164 60.7312 93.4558 60.0922L99.2752 54.2727H106.955C111.309 54.2727 114.909 50.6697 114.909 46.3182V34.9545C114.909 30.603 111.309 27 106.955 27H75.1364ZM75.1364 33.8182H106.955C107.623 33.8182 108.091 34.2879 108.091 34.9545V46.3182C108.091 46.9848 107.623 47.4545 106.955 47.4545H97.8636C96.9595 47.4547 96.0925 47.814 95.4533 48.4533L91.0455 52.8612L86.6376 48.4533C85.9984 47.814 85.1314 47.4547 84.2273 47.4545H75.1364C74.4679 47.4545 74 46.9848 74 46.3182V34.9545C74 34.2879 74.4679 33.8182 75.1364 33.8182ZM42.1818 61.0909C38.678 61.0909 35.6185 62.5276 33.668 64.7219C31.7174 66.9163 30.8182 69.7083 30.8182 72.4545C30.8182 75.2008 31.7174 77.9928 33.668 80.1871C35.6185 82.3815 38.678 83.8182 42.1818 83.8182C45.6856 83.8182 48.7451 82.3815 50.6957 80.1871C52.6462 77.9928 53.5455 75.2008 53.5455 72.4545C53.5455 69.7083 52.6462 66.9163 50.6957 64.7219C48.7451 62.5276 45.6856 61.0909 42.1818 61.0909ZM74 61.0909C69.7386 61.0909 66.1109 62.8117 63.7816 65.4322C61.4523 68.0527 60.3636 71.4129 60.3636 74.7273C60.3636 78.0417 61.4523 81.4019 63.7816 84.0224C66.1109 86.6429 69.7386 88.3636 74 88.3636C78.2614 88.3636 81.8891 86.6429 84.2184 84.0224C86.5477 81.4019 87.6364 78.0417 87.6364 74.7273C87.6364 71.4129 86.5477 68.0527 84.2184 65.4322C81.8891 62.8117 78.2614 61.0909 74 61.0909ZM105.818 61.0909C102.314 61.0909 99.2549 62.5276 97.3043 64.7219C95.3538 66.9163 94.4545 69.7083 94.4545 72.4545C94.4545 75.2008 95.3538 77.9928 97.3043 80.1871C99.2549 82.3815 102.314 83.8182 105.818 83.8182C109.322 83.8182 112.381 82.3815 114.332 80.1871C116.283 77.9928 117.182 75.2008 117.182 72.4545C117.182 69.7083 116.283 66.9163 114.332 64.7219C112.381 62.5276 109.322 61.0909 105.818 61.0909ZM42.1818 67.9091C43.9811 67.9091 44.8988 68.4611 45.5998 69.2496C46.3008 70.0382 46.7273 71.2235 46.7273 72.4545C46.7273 73.6856 46.3008 74.8709 45.5998 75.6594C44.8988 76.448 43.9811 77 42.1818 77C40.3826 77 39.4648 76.448 38.7638 75.6594C38.0629 74.8709 37.6364 73.6856 37.6364 72.4545C37.6364 71.2235 38.0629 70.0382 38.7638 69.2496C39.4648 68.4611 40.3826 67.9091 42.1818 67.9091ZM74 67.9091C76.5568 67.9091 78.0428 68.7452 79.1225 69.9599C80.2023 71.1746 80.8182 72.928 80.8182 74.7273C80.8182 76.5265 80.2023 78.28 79.1225 79.4947C78.0428 80.7094 76.5568 81.5455 74 81.5455C71.4432 81.5455 69.9572 80.7094 68.8775 79.4947C67.7977 78.28 67.1818 76.5265 67.1818 74.7273C67.1818 72.928 67.7977 71.1746 68.8775 69.9599C69.9572 68.7452 71.4432 67.9091 74 67.9091ZM105.818 67.9091C107.617 67.9091 108.535 68.4611 109.236 69.2496C109.937 70.0382 110.364 71.2235 110.364 72.4545C110.364 73.6856 109.937 74.8709 109.236 75.6594C108.535 76.448 107.617 77 105.818 77C104.019 77 103.101 76.448 102.4 75.6594C101.699 74.8709 101.273 73.6856 101.273 72.4545C101.273 71.2235 101.699 70.0382 102.4 69.2496C103.101 68.4611 104.019 67.9091 105.818 67.9091ZM30.8182 88.3636C27.0682 88.3636 24 91.4318 24 95.1818V98.8173C24 105.704 31.9773 111.091 42.1818 111.091C45.0455 111.091 47.75 110.661 50.1364 109.888C49.3864 108.138 49 106.25 49 104.273V103.07C47.1136 103.797 44.7727 104.273 42.1818 104.273C35.7727 104.273 30.8182 101.34 30.8182 98.8173V95.1818H50.3849C51.7486 92.5 54.092 90.3651 56.9102 89.2514C55.9102 88.6832 54.75 88.3636 53.5455 88.3636H30.8182ZM94.4545 88.3636C93.25 88.3636 92.0898 88.6832 91.0898 89.2514C93.908 90.3651 96.2514 92.5 97.6151 95.1818H117.182V98.8173C117.182 101.34 112.227 104.273 105.818 104.273C103.227 104.273 100.886 103.797 99 103.07V104.273C99 106.25 98.6136 108.138 97.8636 109.888C100.25 110.661 102.955 111.091 105.818 111.091C116.023 111.091 124 105.704 124 98.8173V95.1818C124 91.4318 120.932 88.3636 117.182 88.3636H94.4545ZM61.5 92.9091C57.1478 92.9091 53.5455 96.5115 53.5455 100.864V104.273C53.5455 108.632 56.4544 112.185 60.195 114.429C63.9355 116.673 68.7404 117.909 74 117.909C79.2596 117.909 84.0645 116.673 87.805 114.429C91.5456 112.185 94.4545 108.632 94.4545 104.273V100.864C94.4545 96.5115 90.8522 92.9091 86.5 92.9091H61.5ZM61.5 99.7273H86.5C87.1706 99.7273 87.6364 100.193 87.6364 100.864V104.273C87.6364 105.561 86.727 107.126 84.2983 108.583C81.8696 110.04 78.154 111.091 74 111.091C69.846 111.091 66.1304 110.04 63.7017 108.583C61.273 107.126 60.3636 105.561 60.3636 104.273V100.864C60.3636 100.193 60.8294 99.7273 61.5 99.7273Z" fill="#F6D813"/>
<defs>
<linearGradient id="paint0_linear_904_217" x1="142.961" y1="143.424" x2="10.782" y2="129.534" gradientUnits="userSpaceOnUse">
<stop stop-color="#24AC9D"/>
<stop offset="1" stop-color="#3B6FB5"/>
</linearGradient>
</defs>
</svg>
