<svg width="144" height="144" viewBox="0 0 144 144" fill="none" xmlns="http://www.w3.org/2000/svg">
<path opacity="0.6" d="M94.2821 4.17848C105.656 -5.02676 122.796 1.83758 124.721 16.3687L138.831 122.892C140.708 137.063 126.635 147.951 113.331 142.623L15.8422 103.581C2.53725 98.2525 -0.188102 80.6369 10.9036 71.6599L94.2821 4.17848Z" fill="url(#paint0_linear_904_145)"/>
<path d="M35.75 35C28.2006 35 22 41.2006 22 48.75V101.25C22 108.799 28.2006 115 35.75 115H108.25C115.799 115 122 108.799 122 101.25V48.75C122 41.2006 115.799 35 108.25 35H35.75ZM35.75 42.5H108.25C111.746 42.5 114.5 45.2544 114.5 48.75V101.25C114.5 104.746 111.746 107.5 108.25 107.5H35.75C32.2544 107.5 29.5 104.746 29.5 101.25V48.75C29.5 45.2544 32.2544 42.5 35.75 42.5ZM42.7031 60C42.2969 59.9902 41.88 60.061 41.4775 60.2197C39.8725 60.8522 39.0872 62.665 39.7197 64.2725L49.0947 88.0225C49.5672 89.2175 50.7175 90 52 90C53.2825 90 54.4328 89.2175 54.9053 88.0225L64.2803 64.2725C64.9128 62.6675 64.1275 60.8522 62.5225 60.2197C62.145 60.0697 61.7599 60 61.3799 60C60.1324 60 58.9547 60.7524 58.4697 61.9824L52 78.3643L45.5303 61.9775C45.0559 60.7738 43.9218 60.0295 42.7031 60ZM72.625 60C70.9 60 69.5 61.4 69.5 63.125V86.875C69.5 88.6 70.9 90 72.625 90C74.35 90 75.75 88.6 75.75 86.875V63.125C75.75 61.4 74.35 60 72.625 60ZM85.125 60C83.4 60 82 61.4 82 63.125V86.875C82 88.6 83.4 90 85.125 90C86.85 90 88.25 88.6 88.25 86.875V82.5H93.25C99.4525 82.5 104.5 77.4525 104.5 71.25C104.5 65.0475 99.4525 60 93.25 60H85.125ZM88.25 66.25H93.25C96.0075 66.25 98.25 68.4925 98.25 71.25C98.25 74.0075 96.0075 76.25 93.25 76.25H88.25V66.25Z" fill="#F6D813"/>
<defs>
<linearGradient id="paint0_linear_904_145" x1="139" y1="144.357" x2="13.1378" y2="131.947" gradientUnits="userSpaceOnUse">
<stop stop-color="#24AC9D"/>
<stop offset="1" stop-color="#3B6FB5"/>
</linearGradient>
</defs>
</svg>
