<svg width="144" height="144" viewBox="0 0 144 144" fill="none" xmlns="http://www.w3.org/2000/svg">
<g clip-path="url(#clip0_904_253)">
<path opacity="0.6" d="M128.48 55.5399C141.336 62.7963 141.3 81.4386 128.417 88.6461L33.9733 141.482C21.4095 148.511 5.9725 139.346 6.00004 124.876L6.20183 18.8444C6.22937 4.37355 21.7012 -4.73188 34.2381 2.34462L128.48 55.5399Z" fill="url(#paint0_linear_904_253)"/>
<path d="M52.4877 20.0004C52.0029 19.9935 51.5216 20.0831 51.0717 20.2639C50.6218 20.4446 50.2123 20.713 49.8671 21.0534C49.5218 21.3938 49.2477 21.7995 49.0606 22.2468C48.8734 22.694 48.7771 23.174 48.7771 23.6589C48.7771 24.1437 48.8734 24.6237 49.0606 25.071C49.2477 25.5183 49.5218 25.9239 49.8671 26.2643C50.2123 26.6047 50.6218 26.8731 51.0717 27.0539C51.5216 27.2347 52.0029 27.3243 52.4877 27.3174H79.3169C79.8017 27.3243 80.283 27.2347 80.7329 27.0539C81.1828 26.8731 81.5922 26.6047 81.9375 26.2643C82.2827 25.9239 82.5569 25.5183 82.744 25.071C82.9311 24.6237 83.0275 24.1437 83.0275 23.6589C83.0275 23.174 82.9311 22.694 82.744 22.2468C82.5569 21.7995 82.2827 21.3938 81.9375 21.0534C81.5922 20.713 81.1828 20.4446 80.7329 20.2639C80.283 20.0831 79.8017 19.9935 79.3169 20.0004H52.4877ZM100.334 29.7183C99.6054 29.7276 98.8959 29.9544 98.2968 30.3695C97.6976 30.7847 97.2362 31.3694 96.9715 32.0487C96.7069 32.7279 96.6512 33.4707 96.8115 34.1817C96.9719 34.8928 97.341 35.5398 97.8715 36.0398L103.593 41.6038C103.937 41.9391 104.344 42.2034 104.791 42.3814C105.237 42.5595 105.714 42.6478 106.195 42.6414C106.676 42.635 107.15 42.534 107.592 42.3442C108.034 42.1543 108.433 41.8794 108.769 41.535C109.104 41.1906 109.368 40.7835 109.546 40.337C109.724 39.8904 109.813 39.4132 109.806 38.9326C109.8 38.4519 109.699 37.9773 109.509 37.5357C109.319 37.0941 109.044 36.6942 108.699 36.3589L102.973 30.7902C102.628 30.4441 102.216 30.171 101.762 29.9869C101.309 29.8028 100.824 29.7115 100.334 29.7183ZM65.9023 32.1954C41.699 32.1954 22 51.8945 22 76.0977C22 100.301 41.699 120 65.9023 120C90.1055 120 109.805 100.301 109.805 76.0977C109.805 51.8945 90.1055 32.1954 65.9023 32.1954ZM65.9023 39.5125C86.1511 39.5125 102.488 55.8489 102.488 76.0977C102.488 96.3465 86.1511 112.683 65.9023 112.683C45.6535 112.683 29.317 96.3465 29.317 76.0977C29.317 66.1461 33.2754 57.1511 39.6924 50.5643L60.5002 63.3691C62.8612 64.8228 65.9023 63.1269 65.9023 60.3537V39.5125ZM41.3025 59.0008C40.5121 59.0357 39.7543 59.3259 39.1427 59.8279C38.5311 60.3299 38.0987 61.0166 37.9103 61.7851C37.722 62.5535 37.7878 63.3624 38.0979 64.0903C38.4081 64.8182 38.9458 65.4259 39.6305 65.8224L64.0206 80.4565C64.4329 80.7038 64.8898 80.8674 65.3653 80.938C65.8408 81.0086 66.3256 80.9849 66.7919 80.8681C67.2582 80.7514 67.697 80.5439 68.0831 80.2576C68.4692 79.9713 68.7952 79.6117 69.0423 79.1994C69.2895 78.787 69.453 78.3301 69.5235 77.8546C69.594 77.379 69.5701 76.8943 69.4533 76.428C69.3364 75.9617 69.1289 75.523 68.8424 75.1369C68.556 74.7509 68.1963 74.425 67.7839 74.178L43.3938 59.5439C42.7673 59.1565 42.0384 58.9672 41.3025 59.0008Z" fill="#F6D813"/>
</g>
<defs>
<linearGradient id="paint0_linear_904_253" x1="138.101" y1="144.252" x2="14.8912" y2="132.365" gradientUnits="userSpaceOnUse">
<stop stop-color="#24AC9D"/>
<stop offset="1" stop-color="#3B6FB5"/>
</linearGradient>
<clipPath id="clip0_904_253">
<rect width="144" height="144" fill="white"/>
</clipPath>
</defs>
</svg>
