<svg width="144" height="144" viewBox="0 0 144 144" fill="none" xmlns="http://www.w3.org/2000/svg">
<g clip-path="url(#clip0_904_154)">
<path opacity="0.6" d="M128.48 55.5399C141.336 62.7963 141.3 81.4386 128.417 88.6461L33.9733 141.482C21.4095 148.511 5.9725 139.346 6.00004 124.876L6.20183 18.8444C6.22937 4.37355 21.7012 -4.73188 34.2381 2.34462L128.48 55.5399Z" fill="url(#paint0_linear_904_154)"/>
<path d="M31.5618 22.0022C30.5069 22.0374 29.5049 22.4726 28.7591 23.2196L23.2187 28.76C22.5493 29.4288 22.1281 30.3059 22.0248 31.2464C21.9215 32.1869 22.1423 33.1345 22.6506 33.9326L33.3257 50.6891C36.3274 55.4911 42.8293 56.3854 47.2417 53.1185L68.8894 74.7662C65.1874 81.1431 65.7549 89.3765 71.1673 94.8503H71.1619L93.0856 117.072C93.0892 117.073 93.0928 117.075 93.0964 117.077C99.579 123.607 110.249 123.646 116.779 117.164C123.304 110.686 123.351 100.015 116.876 93.4869L116.865 93.476L94.9847 71.2981C94.9829 71.2981 94.9811 71.2981 94.9793 71.2981C89.5216 65.7814 81.2053 65.1632 74.7707 68.8958L53.1176 47.2426C56.3797 42.833 55.4912 36.3372 50.699 33.332L33.9316 22.6515C33.2252 22.2011 32.3991 21.9748 31.5618 22.0022ZM92.4038 22.0022C76.8407 22.0022 64.1293 34.2971 63.3869 49.6774L72.2494 58.5345C72.471 57.8115 72.5056 57.0345 72.3089 56.2783C71.8546 54.5136 71.6272 52.7683 71.6272 51.0895C71.6272 39.6319 80.9462 30.3129 92.4038 30.3129C93.4648 30.3129 94.5167 30.3957 95.5528 30.5564L86.5983 39.5055C84.2408 41.8602 82.9461 44.9895 82.9461 48.3193C82.9461 51.6491 84.2436 54.7785 86.5983 57.1332C88.953 59.4878 92.0823 60.7853 95.4121 60.7853C98.7419 60.7853 101.871 59.4878 104.226 57.1332L113.002 48.3626C113.124 49.2629 113.18 50.1726 113.18 51.0895C113.18 59.342 108.34 66.5234 101.348 69.8643L107.402 75.9944C115.837 70.8972 121.491 61.6387 121.491 51.0841C121.491 46.8097 120.56 42.6649 118.721 38.7534C118.145 37.529 117.01 36.6541 115.675 36.4214C114.348 36.1887 112.978 36.6236 112.023 37.5793L98.3501 51.2518C96.7821 52.8198 94.0421 52.8226 92.4742 51.2518C91.6902 50.4706 91.2568 49.4274 91.2568 48.3193C91.2568 47.2112 91.6902 46.1681 92.4742 45.3814L106.228 31.6222C107.178 30.6721 107.613 29.3241 107.391 27.9972C107.17 26.673 106.318 25.5356 105.113 24.9456C101.096 22.9926 96.8223 22.0022 92.4038 22.0022ZM32.276 31.4545L46.2515 40.3549C46.2623 40.3604 46.2732 40.3658 46.284 40.3712C47.1147 40.8902 47.2215 41.8306 46.5275 42.5246L42.5237 46.5284C41.8274 47.2254 40.8942 47.123 40.3702 46.2849C40.3649 46.2741 40.3595 46.2633 40.354 46.2525L31.4536 32.2769L32.276 31.4545ZM53.0635 66.7748L26.8654 93.1785C23.7129 96.3531 21.9847 100.57 22.0013 105.044C22.0179 109.518 23.7774 113.716 26.9466 116.866C30.1074 120.005 34.2926 121.73 38.7471 121.73H38.8066C43.2805 121.713 47.4816 119.957 50.6341 116.779L67.856 99.4169L66.8875 98.443C65.1894 96.7254 63.8573 94.7693 62.8296 92.6861L44.7366 110.925C43.1492 112.524 41.0317 113.411 38.7795 113.419C36.4193 113.381 34.4047 112.559 32.8062 110.968C31.2051 109.381 30.3203 107.266 30.312 105.011C30.3037 102.759 31.1756 100.637 32.763 99.0381L58.9394 72.6507L53.0635 66.7748ZM83.1084 74.6093C85.261 74.619 87.4124 75.4652 89.0709 77.1415L110.957 99.3249C110.96 99.3285 110.964 99.3321 110.968 99.3357C114.282 102.671 114.263 107.952 110.924 111.266C107.581 114.585 102.312 114.566 98.9939 111.223L77.0756 89.0123C77.0756 89.0105 77.0756 89.0087 77.0756 89.0069C73.7686 85.6624 73.7941 80.3987 77.1298 77.0874C78.8032 75.4261 80.9559 74.5996 83.1084 74.6093Z" fill="#F6D813"/>
</g>
<defs>
<linearGradient id="paint0_linear_904_154" x1="138.101" y1="144.252" x2="14.8912" y2="132.365" gradientUnits="userSpaceOnUse">
<stop stop-color="#24AC9D"/>
<stop offset="1" stop-color="#3B6FB5"/>
</linearGradient>
<clipPath id="clip0_904_154">
<rect width="144" height="144" fill="white"/>
</clipPath>
</defs>
</svg>
