<svg width="144" height="144" viewBox="0 0 144 144" fill="none" xmlns="http://www.w3.org/2000/svg">
<g clip-path="url(#clip0_906_464)">
<path opacity="0.6" d="M128.197 52.1574C141.104 59.321 141.203 77.9631 128.372 85.2631L34.3114 138.778C21.7986 145.897 6.29596 136.844 6.21929 122.373L5.65748 16.3435C5.58081 1.87277 20.9867 -7.34386 33.5742 -0.357821L128.197 52.1574Z" fill="url(#paint0_linear_906_464)"/>
<path d="M59.0952 15C45.9879 15 35.2857 25.7022 35.2857 38.8095C35.2857 51.9169 45.9879 62.619 59.0952 62.619C72.2026 62.619 82.9048 51.9169 82.9048 38.8095C82.9048 25.7022 72.2026 15 59.0952 15ZM59.0952 22.1429C68.3423 22.1429 75.7619 29.5625 75.7619 38.8095C75.7619 48.0566 68.3423 55.4762 59.0952 55.4762C49.8482 55.4762 42.4286 48.0566 42.4286 38.8095C42.4286 29.5625 49.8482 22.1429 59.0952 22.1429ZM109.049 62.5958C108.43 62.6142 107.843 62.8727 107.412 63.3166L102.092 68.6365C97.5545 64.8471 91.7934 62.619 85.2857 62.619C70.7619 62.619 59.0952 74.2857 59.0952 88.8095C59.0952 103.333 70.7619 115 85.2857 115C99.8095 115 111.476 103.333 111.476 88.8095C111.476 84.0476 110.285 79.761 108.142 75.9515L102.906 81.1923C103.858 83.5733 104.333 85.9533 104.333 88.5724C104.333 99.0485 95.7619 107.62 85.2857 107.62C74.8095 107.62 66.2381 99.0485 66.2381 88.5724C66.2381 78.0962 74.8095 69.5247 85.2857 69.5247C89.6938 69.5247 93.757 71.0541 97.0649 73.6635L93.4609 77.2675C91.3314 75.5602 88.4617 74.5238 85.2857 74.5238C77.4286 74.5238 71 80.9524 71 88.8095C71 96.6667 77.4286 103.095 85.2857 103.095C93.1429 103.095 99.5714 96.6667 99.5714 88.8095C99.5714 87.619 99.3352 86.1905 99.0971 85.2381L90.2848 94.0458C89.3324 94.9981 87.9048 95.7143 86.4762 95.9524H85.0485C81.0009 95.9524 77.9057 92.8571 77.9057 88.8095C77.9057 84.7619 81.0009 81.6667 85.0485 81.6667C86.1805 81.6667 87.2938 81.948 88.2759 82.4526L83.6023 87.1261C83.3738 87.3455 83.1914 87.6083 83.0657 87.8991C82.94 88.1899 82.8736 88.5028 82.8704 88.8196C82.8672 89.1363 82.9272 89.4506 83.0469 89.7438C83.1666 90.0371 83.3437 90.3035 83.5677 90.5275C83.7917 90.7515 84.0581 90.9286 84.3514 91.0483C84.6447 91.1681 84.9589 91.2281 85.2757 91.2249C85.5924 91.2216 85.9054 91.1552 86.1962 91.0296C86.4869 90.9039 86.7497 90.7214 86.9691 90.4929L110.779 66.6834C111.123 66.349 111.358 65.9184 111.453 65.4481C111.548 64.9778 111.499 64.4898 111.312 64.0479C111.125 63.606 110.809 63.231 110.405 62.9718C110.001 62.7127 109.528 62.5817 109.049 62.5958ZM31.7143 72.1429C25.7619 72.1429 21 76.9048 21 82.8571V86.4286C21 99.7619 37.6667 110.238 59.0952 110.238H62.9038C60.9991 108.095 59.0952 105.714 57.9048 103.095C41.7143 102.619 28.1429 95.2381 28.1429 86.4286V82.8571C28.1429 80.9524 29.8095 79.2857 31.7143 79.2857H55.761C56.4753 76.6667 57.6667 74.2857 59.0952 72.1429H31.7143Z" fill="#F6D813"/>
</g>
<defs>
<linearGradient id="paint0_linear_906_464" x1="137.937" y1="141.614" x2="14.5635" y2="129.695" gradientUnits="userSpaceOnUse">
<stop stop-color="#24AC9D"/>
<stop offset="1" stop-color="#3B6FB5"/>
</linearGradient>
<clipPath id="clip0_906_464">
<rect width="144" height="144" fill="white"/>
</clipPath>
</defs>
</svg>
