<svg width="144" height="144" viewBox="0 0 144 144" fill="none" xmlns="http://www.w3.org/2000/svg">
<g clip-path="url(#clip0_904_238)">
<path opacity="0.6" d="M128.48 55.5399C141.336 62.7963 141.3 81.4386 128.417 88.6461L33.9733 141.482C21.4095 148.511 5.9725 139.346 6.00004 124.876L6.20183 18.8444C6.22937 4.37355 21.7012 -4.73188 34.2381 2.34462L128.48 55.5399Z" fill="url(#paint0_linear_904_238)"/>
<path d="M59.25 18C53.5085 18 48.7643 22.4166 48.127 28H39.25C33.0812 28 28 33.0812 28 39.25V106.75C28 112.919 33.0812 118 39.25 118H96.75C102.919 118 108 112.919 108 106.75V39.25C108 33.0812 102.919 28 96.75 28H87.873C87.2357 22.4166 82.4915 18 76.75 18H59.25ZM59.25 25.5H76.75C78.8662 25.5 80.5 27.1338 80.5 29.25C80.5 31.3662 78.8662 33 76.75 33H59.25C57.1338 33 55.5 31.3662 55.5 29.25C55.5 27.1338 57.1338 25.5 59.25 25.5ZM39.25 35.5H49.9238C51.9531 38.5048 55.3868 40.5 59.25 40.5H76.75C80.6132 40.5 84.0469 38.5048 86.0762 35.5H96.75C98.8662 35.5 100.5 37.1338 100.5 39.25V106.75C100.5 108.866 98.8662 110.5 96.75 110.5H39.25C37.1338 110.5 35.5 108.866 35.5 106.75V39.25C35.5 37.1338 37.1338 35.5 39.25 35.5ZM46.75 58C46.2531 57.993 45.7597 58.0848 45.2986 58.2701C44.8375 58.4554 44.4178 58.7305 44.0639 59.0794C43.71 59.4283 43.429 59.8441 43.2372 60.3026C43.0454 60.761 42.9466 61.253 42.9466 61.75C42.9466 62.247 43.0454 62.739 43.2372 63.1974C43.429 63.6559 43.71 64.0717 44.0639 64.4206C44.4178 64.7695 44.8375 65.0446 45.2986 65.2299C45.7597 65.4152 46.2531 65.507 46.75 65.5H71.75C72.2469 65.507 72.7403 65.4152 73.2014 65.2299C73.6625 65.0446 74.0822 64.7695 74.4361 64.4206C74.79 64.0717 75.071 63.6559 75.2628 63.1974C75.4546 62.739 75.5534 62.247 75.5534 61.75C75.5534 61.253 75.4546 60.761 75.2628 60.3026C75.071 59.8441 74.79 59.4283 74.4361 59.0794C74.0822 58.7305 73.6625 58.4554 73.2014 58.2701C72.7403 58.0848 72.2469 57.993 71.75 58H46.75ZM84.25 58C83.7531 57.993 83.2597 58.0848 82.7986 58.2701C82.3375 58.4554 81.9178 58.7305 81.5639 59.0794C81.21 59.4283 80.929 59.8441 80.7372 60.3026C80.5454 60.761 80.4466 61.253 80.4466 61.75C80.4466 62.247 80.5454 62.739 80.7372 63.1974C80.929 63.6559 81.21 64.0717 81.5639 64.4206C81.9178 64.7695 82.3375 65.0446 82.7986 65.2299C83.2597 65.4152 83.7531 65.507 84.25 65.5H89.25C89.7469 65.507 90.2403 65.4152 90.7014 65.2299C91.1625 65.0446 91.5822 64.7695 91.9361 64.4206C92.29 64.0717 92.571 63.6559 92.7628 63.1974C92.9546 62.739 93.0534 62.247 93.0534 61.75C93.0534 61.253 92.9546 60.761 92.7628 60.3026C92.571 59.8441 92.29 59.4283 91.9361 59.0794C91.5822 58.7305 91.1625 58.4554 90.7014 58.2701C90.2403 58.0848 89.7469 57.993 89.25 58H84.25ZM46.75 73C46.2531 72.993 45.7597 73.0848 45.2986 73.2701C44.8375 73.4554 44.4178 73.7305 44.0639 74.0794C43.71 74.4283 43.429 74.8441 43.2372 75.3026C43.0454 75.761 42.9466 76.253 42.9466 76.75C42.9466 77.247 43.0454 77.739 43.2372 78.1974C43.429 78.6559 43.71 79.0717 44.0639 79.4206C44.4178 79.7695 44.8375 80.0446 45.2986 80.2299C45.7597 80.4152 46.2531 80.507 46.75 80.5H71.75C72.2469 80.507 72.7403 80.4152 73.2014 80.2299C73.6625 80.0446 74.0822 79.7695 74.4361 79.4206C74.79 79.0717 75.071 78.6559 75.2628 78.1974C75.4546 77.739 75.5534 77.247 75.5534 76.75C75.5534 76.253 75.4546 75.761 75.2628 75.3026C75.071 74.8441 74.79 74.4283 74.4361 74.0794C74.0822 73.7305 73.6625 73.4554 73.2014 73.2701C72.7403 73.0848 72.2469 72.993 71.75 73H46.75ZM84.25 73C83.7531 72.993 83.2597 73.0848 82.7986 73.2701C82.3375 73.4554 81.9178 73.7305 81.5639 74.0794C81.21 74.4283 80.929 74.8441 80.7372 75.3026C80.5454 75.761 80.4466 76.253 80.4466 76.75C80.4466 77.247 80.5454 77.739 80.7372 78.1974C80.929 78.6559 81.21 79.0717 81.5639 79.4206C81.9178 79.7695 82.3375 80.0446 82.7986 80.2299C83.2597 80.4152 83.7531 80.507 84.25 80.5H89.25C89.7469 80.507 90.2403 80.4152 90.7014 80.2299C91.1625 80.0446 91.5822 79.7695 91.9361 79.4206C92.29 79.0717 92.571 78.6559 92.7628 78.1974C92.9546 77.739 93.0534 77.247 93.0534 76.75C93.0534 76.253 92.9546 75.761 92.7628 75.3026C92.571 74.8441 92.29 74.4283 91.9361 74.0794C91.5822 73.7305 91.1625 73.4554 90.7014 73.2701C90.2403 73.0848 89.7469 72.993 89.25 73H84.25ZM46.75 88C46.2531 87.993 45.7597 88.0848 45.2986 88.2701C44.8375 88.4554 44.4178 88.7305 44.0639 89.0794C43.71 89.4283 43.429 89.8441 43.2372 90.3026C43.0454 90.761 42.9466 91.253 42.9466 91.75C42.9466 92.247 43.0454 92.739 43.2372 93.1974C43.429 93.6559 43.71 94.0717 44.0639 94.4206C44.4178 94.7695 44.8375 95.0446 45.2986 95.2299C45.7597 95.4152 46.2531 95.507 46.75 95.5H71.75C72.2469 95.507 72.7403 95.4152 73.2014 95.2299C73.6625 95.0446 74.0822 94.7695 74.4361 94.4206C74.79 94.0717 75.071 93.6559 75.2628 93.1974C75.4546 92.739 75.5534 92.247 75.5534 91.75C75.5534 91.253 75.4546 90.761 75.2628 90.3026C75.071 89.8441 74.79 89.4283 74.4361 89.0794C74.0822 88.7305 73.6625 88.4554 73.2014 88.2701C72.7403 88.0848 72.2469 87.993 71.75 88H46.75ZM84.25 88C83.7531 87.993 83.2597 88.0848 82.7986 88.2701C82.3375 88.4554 81.9178 88.7305 81.5639 89.0794C81.21 89.4283 80.929 89.8441 80.7372 90.3026C80.5454 90.761 80.4466 91.253 80.4466 91.75C80.4466 92.247 80.5454 92.739 80.7372 93.1974C80.929 93.6559 81.21 94.0717 81.5639 94.4206C81.9178 94.7695 82.3375 95.0446 82.7986 95.2299C83.2597 95.4152 83.7531 95.507 84.25 95.5H89.25C89.7469 95.507 90.2403 95.4152 90.7014 95.2299C91.1625 95.0446 91.5822 94.7695 91.9361 94.4206C92.29 94.0717 92.571 93.6559 92.7628 93.1974C92.9546 92.739 93.0534 92.247 93.0534 91.75C93.0534 91.253 92.9546 90.761 92.7628 90.3026C92.571 89.8441 92.29 89.4283 91.9361 89.0794C91.5822 88.7305 91.1625 88.4554 90.7014 88.2701C90.2403 88.0848 89.7469 87.993 89.25 88H84.25Z" fill="#F6D813"/>
</g>
<defs>
<linearGradient id="paint0_linear_904_238" x1="138.101" y1="144.252" x2="14.8912" y2="132.365" gradientUnits="userSpaceOnUse">
<stop stop-color="#24AC9D"/>
<stop offset="1" stop-color="#3B6FB5"/>
</linearGradient>
<clipPath id="clip0_904_238">
<rect width="144" height="144" fill="white"/>
</clipPath>
</defs>
</svg>
