<svg width="144" height="144" viewBox="0 0 144 144" fill="none" xmlns="http://www.w3.org/2000/svg">
<g clip-path="url(#clip0_904_148)">
<path opacity="0.6" d="M128.48 55.5399C141.336 62.7963 141.3 81.4386 128.417 88.6461L33.9733 141.482C21.4095 148.511 5.9725 139.346 6.00004 124.876L6.20183 18.8444C6.22937 4.37355 21.7012 -4.73188 34.2381 2.34462L128.48 55.5399Z" fill="url(#paint0_linear_904_148)"/>
<path d="M43.5377 84.4474C45.3953 86.4285 48.5867 86.5312 50.5679 84.6735L63.5556 72.4953L64.1112 81.974C64.1751 83.0649 64.62 84.1066 65.3711 84.9077C67.4334 87.1071 71.1755 86.7369 72.77 84.1797L76.6624 77.929L77.9045 79.2537C78.1368 79.5086 78.4174 79.7147 78.7301 79.8602C79.0427 80.0057 79.3812 80.0875 79.7257 80.1011C80.0703 80.1146 80.4141 80.0595 80.7372 79.939C81.0603 79.8185 81.3562 79.6349 81.6078 79.3991C81.8593 79.1632 82.0615 78.8797 82.2025 78.565C82.3435 78.2503 82.4206 77.9108 82.4293 77.5661C82.4379 77.2213 82.378 76.8783 82.2529 76.557C82.1278 76.2356 81.9402 75.9423 81.7007 75.6941L80.4586 74.3694L86.9465 70.8868C89.6009 69.46 90.2108 65.7494 88.1485 63.55C87.3971 62.7486 86.3904 62.2385 85.3019 62.1042L75.8786 60.9405L88.8663 48.7623C90.8474 46.9047 90.9501 43.7132 89.0925 41.7321C88.0941 40.6673 86.6777 40.0942 85.219 40.1669L85.2142 40.1668L73.8584 40.7315C73.7886 40.6353 73.7123 40.5439 73.6299 40.4581L67.6973 34.131C67.465 33.8762 67.1844 33.67 66.8717 33.5246C66.559 33.3791 66.2206 33.2972 65.876 33.2837C65.5315 33.2702 65.1876 33.3253 64.8646 33.4458C64.5415 33.5663 64.2455 33.7498 63.994 33.9857C63.7425 34.2216 63.5403 34.5051 63.3993 34.8197C63.2582 35.1344 63.1812 35.474 63.1725 35.8187C63.1639 36.1634 63.2238 36.5064 63.3489 36.8278C63.4739 37.1492 63.6616 37.4425 63.901 37.6906L67.069 41.0692L56.844 41.5768L45.1548 29.1105C42.227 25.9881 37.2434 25.8278 34.121 28.7556C30.9986 31.6834 30.8383 36.6669 33.7661 39.7893L45.4553 52.2556L44.2916 62.4268L41.1236 59.0483C40.8913 58.7934 40.6107 58.5873 40.2981 58.4418C39.9854 58.2963 39.647 58.2145 39.3024 58.2009C38.9578 58.1874 38.614 58.2425 38.2909 58.363C37.9678 58.4835 37.6719 58.6671 37.4204 58.9029C37.1688 59.1388 36.9666 59.4223 36.8256 59.737C36.6846 60.0517 36.6075 60.3912 36.5989 60.736C36.5902 61.0807 36.6502 61.4237 36.7752 61.745C36.9003 62.0664 37.088 62.3597 37.3274 62.6079L43.2601 68.9349C43.3406 69.021 43.4269 69.1014 43.5184 69.1758L42.2273 80.4742C42.0567 81.9285 42.5412 83.3847 43.5377 84.4474ZM47.4655 80.4486L50.7625 51.6497C50.8053 51.2744 50.766 50.8943 50.6471 50.5357C50.5283 50.1772 50.3328 49.8488 50.0742 49.5734L37.5623 36.2297C36.5579 35.1586 36.6095 33.5562 37.6806 32.5518C38.7518 31.5474 40.3542 31.599 41.3586 32.6701L53.8705 46.0138C54.1287 46.2895 54.4438 46.5057 54.794 46.6473C55.1442 46.789 55.521 46.8527 55.8983 46.8341L84.8495 45.3948L69.9537 59.3621C69.4504 59.8342 69.1551 60.4868 69.1329 61.1765C69.1108 61.8663 69.3634 62.5366 69.8354 63.04L71.7334 65.0642C72.1498 65.5087 72.709 65.793 73.3135 65.8676L83.0545 67.0679L75.3664 71.1974C75.0186 71.3174 74.7002 71.5098 74.4322 71.7619C74.1642 72.014 73.9527 72.32 73.8117 72.6599L69.2116 80.0479L68.6374 70.2523C68.6018 69.6442 68.354 69.0679 67.9372 68.6238L66.0392 66.5996C65.5671 66.0963 64.9144 65.801 64.2247 65.7788C63.535 65.7567 62.8647 66.0093 62.3612 66.4813L47.4655 80.4486ZM84.4812 66.306L84.4814 66.3012L84.4862 66.3014L84.4812 66.306Z" fill="#F6D813"/>
<path d="M48.6545 22.667C53.9829 20.3083 59.8551 19 66.0252 19C88.5279 19 106.888 36.4511 109.535 58.7445L120.392 72.3164C123.403 76.0802 121.719 81.9386 117.171 83.5319L110.05 86.0232V98.3402C110.05 102.935 107.092 107.043 102.73 108.496L89.4462 112.925C88.9463 113.092 88.6328 113.524 88.6328 114.05V115.38C88.6395 115.853 88.5521 116.322 88.3757 116.761C88.1993 117.2 87.9374 117.6 87.6053 117.936C87.2732 118.273 86.8774 118.541 86.441 118.723C86.0046 118.906 85.5362 119 85.0632 119C84.5901 119 84.1218 118.906 83.6853 118.723C83.2489 118.541 82.8532 118.273 82.521 117.936C82.1889 117.6 81.927 117.2 81.7506 116.761C81.5743 116.322 81.4869 115.853 81.4936 115.38V114.05C81.4936 110.478 83.8033 107.277 87.1919 106.149L100.471 101.724C101.94 101.235 102.911 99.8899 102.911 98.3402V83.4901C102.911 82.7501 103.141 82.0283 103.569 81.4246C103.997 80.8209 104.602 80.3651 105.3 80.1203L114.81 76.7971C114.816 76.795 114.821 76.7933 114.827 76.792C114.823 76.7881 114.819 76.7836 114.815 76.7785L103.418 62.5325C102.981 61.9862 102.714 61.3235 102.651 60.6269C100.884 41.2172 85.2048 26.1392 66.0252 26.1392C61.8403 26.1392 57.8172 26.8555 54.0662 28.1771L50.3627 24.2274C49.8264 23.6555 49.2548 23.1353 48.6545 22.667Z" fill="#F6D813"/>
<path d="M31.789 35.8209C34.4941 32.3859 37.6789 29.3635 41.2388 26.863C42.6941 27.1986 44.0665 27.9499 45.1548 29.1105L47.2921 31.3901C45.7938 32.3011 44.3634 33.3185 43.0107 34.4322L41.3586 32.6701C40.3542 31.599 38.7518 31.5474 37.6806 32.5518C36.6095 33.5562 36.5579 35.1586 37.5623 36.2297L39.2333 38.0119C38.0506 39.2997 36.9543 40.6733 35.954 42.1229L33.7661 39.7893C32.6984 38.6507 32.0414 37.2647 31.789 35.8209Z" fill="#F6D813"/>
<path d="M27.176 42.9626C23.8725 49.3069 22 56.5455 22 64.2151C22 77.3054 27.4531 89.1208 36.1576 97.3781V97.3828C39.2313 100.296 41.0379 104.125 41.0379 108.166V115.38C41.0312 115.853 41.1186 116.322 41.295 116.761C41.4714 117.2 41.7333 117.6 42.0654 117.936C42.3975 118.273 42.7933 118.541 43.2297 118.723C43.6661 118.906 44.1345 119 44.6076 119C45.0806 119 45.549 118.906 45.9854 118.723C46.4218 118.541 46.8176 118.273 47.1497 117.936C47.4818 117.6 47.7437 117.2 47.9201 116.761C48.0965 116.322 48.1839 115.853 48.1772 115.38V108.166C48.1772 101.993 45.4121 96.3162 41.0705 92.2003C33.7498 85.2558 29.1392 75.3267 29.1392 64.2151C29.1392 58.6745 30.2761 53.4211 32.3207 48.6854L28.5582 44.6728C28.0489 44.1296 27.5882 43.5577 27.176 42.9626Z" fill="#F6D813"/>
</g>
<defs>
<linearGradient id="paint0_linear_904_148" x1="138.101" y1="144.252" x2="14.8912" y2="132.365" gradientUnits="userSpaceOnUse">
<stop stop-color="#24AC9D"/>
<stop offset="1" stop-color="#3B6FB5"/>
</linearGradient>
<clipPath id="clip0_904_148">
<rect width="144" height="144" fill="white"/>
</clipPath>
</defs>
</svg>
