<svg width="144" height="144" viewBox="0 0 144 144" fill="none" xmlns="http://www.w3.org/2000/svg">
<g clip-path="url(#clip0_904_235)">
<path opacity="0.6" d="M128.48 55.5399C141.336 62.7963 141.3 81.4386 128.417 88.6461L33.9733 141.482C21.4095 148.511 5.9725 139.346 6.00004 124.876L6.20183 18.8444C6.22937 4.37355 21.7012 -4.73188 34.2381 2.34462L128.48 55.5399Z" fill="url(#paint0_linear_904_235)"/>
<path d="M42.456 22C35.0945 22 29.0484 28.0462 29.0484 35.4076V54.3098C28.9839 54.7023 28.9839 55.1028 29.0484 55.4953V83.5628C28.9839 83.9554 28.9839 84.3558 29.0484 84.7484V103.665C29.0484 109.732 33.234 114.693 38.7994 116.325V118.291C38.7925 118.776 38.882 119.257 39.0627 119.707C39.2434 120.156 39.5117 120.565 39.8519 120.911C40.1921 121.256 40.5976 121.53 41.0446 121.717C41.4917 121.904 41.9714 122 42.456 122C42.9406 122 43.4204 121.904 43.8674 121.717C44.3145 121.53 44.7199 121.256 45.0601 120.911C45.4003 120.565 45.6686 120.156 45.8493 119.707C46.03 119.257 46.1195 118.776 46.1126 118.291V117.072H89.9922V118.291C89.9854 118.776 90.0749 119.257 90.2556 119.707C90.4363 120.156 90.7045 120.565 91.0447 120.911C91.385 121.256 91.7904 121.53 92.2374 121.717C92.6845 121.904 93.1643 122 93.6488 122C94.1334 122 94.6132 121.904 95.0603 121.717C95.5073 121.53 95.9127 121.256 96.253 120.911C96.5932 120.565 96.8614 120.156 97.0421 119.707C97.2228 119.257 97.3123 118.776 97.3055 118.291V116.325C102.871 114.693 107.056 109.732 107.056 103.665V84.7626C107.121 84.3701 107.121 83.9697 107.056 83.5771V55.5096C107.121 55.117 107.121 54.7166 107.056 54.324V35.4076C107.056 28.0462 101.01 22 93.6488 22H42.456ZM42.456 29.3133H93.6488C97.0574 29.3133 99.7432 31.9991 99.7432 35.4076V51.253H36.3616V35.4076C36.3616 31.9991 39.0475 29.3133 42.456 29.3133ZM61.958 36.6265C61.4735 36.6197 60.9924 36.7092 60.5428 36.8899C60.0931 37.0706 59.6839 37.3388 59.3388 37.679C58.9937 38.0193 58.7197 38.4247 58.5327 38.8717C58.3456 39.3188 58.2493 39.7986 58.2493 40.2832C58.2493 40.7678 58.3456 41.2475 58.5327 41.6946C58.7197 42.1416 58.9937 42.547 59.3388 42.8873C59.6839 43.2275 60.0931 43.4957 60.5428 43.6764C60.9924 43.8571 61.4735 43.9466 61.958 43.9398H74.1468C74.6314 43.9466 75.1124 43.8571 75.5621 43.6764C76.0117 43.4957 76.421 43.2275 76.7661 42.8873C77.1111 42.547 77.3852 42.1416 77.5722 41.6946C77.7592 41.2475 77.8555 40.7678 77.8555 40.2832C77.8555 39.7986 77.7592 39.3188 77.5722 38.8717C77.3852 38.4247 77.1111 38.0193 76.7661 37.679C76.421 37.3388 76.0117 37.0706 75.5621 36.8899C75.1124 36.7092 74.6314 36.6197 74.1468 36.6265H61.958ZM36.3616 58.5663H99.7432V80.5061H36.3616V58.5663ZM61.958 65.8796C61.4735 65.8727 60.9924 65.9622 60.5428 66.1429C60.0931 66.3236 59.6839 66.5919 59.3388 66.9321C58.9937 67.2723 58.7197 67.6777 58.5327 68.1248C58.3456 68.5718 58.2493 69.0516 58.2493 69.5362C58.2493 70.0208 58.3456 70.5006 58.5327 70.9476C58.7197 71.3947 58.9937 71.8001 59.3388 72.1403C59.6839 72.4805 60.0931 72.7488 60.5428 72.9295C60.9924 73.1102 61.4735 73.1997 61.958 73.1928H74.1468C74.6314 73.1997 75.1124 73.1102 75.5621 72.9295C76.0117 72.7488 76.421 72.4805 76.7661 72.1403C77.1111 71.8001 77.3852 71.3947 77.5722 70.9476C77.7592 70.5006 77.8555 70.0208 77.8555 69.5362C77.8555 69.0516 77.7592 68.5718 77.5722 68.1248C77.3852 67.6777 77.1111 67.2723 76.7661 66.9321C76.421 66.5919 76.0117 66.3236 75.5621 66.1429C75.1124 65.9622 74.6314 65.8727 74.1468 65.8796H61.958ZM36.3616 87.8194H99.7432V103.665C99.7432 107.03 97.1048 109.644 93.7584 109.712C93.5257 109.705 93.2929 109.721 93.0632 109.759H43.0559C42.8184 109.72 42.5776 109.704 42.337 109.712C38.9951 109.639 36.3616 107.027 36.3616 103.665V87.8194ZM61.958 95.1326C61.4735 95.1258 60.9924 95.2153 60.5428 95.396C60.0931 95.5767 59.6839 95.8449 59.3388 96.1851C58.9937 96.5254 58.7197 96.9308 58.5327 97.3778C58.3456 97.8249 58.2493 98.3047 58.2493 98.7893C58.2493 99.2739 58.3456 99.7536 58.5327 100.201C58.7197 100.648 58.9937 101.053 59.3388 101.393C59.6839 101.734 60.0931 102.002 60.5428 102.183C60.9924 102.363 61.4735 102.453 61.958 102.446H74.1468C74.6314 102.453 75.1124 102.363 75.5621 102.183C76.0117 102.002 76.421 101.734 76.7661 101.393C77.1111 101.053 77.3852 100.648 77.5722 100.201C77.7592 99.7536 77.8555 99.2739 77.8555 98.7893C77.8555 98.3047 77.7592 97.8249 77.5722 97.3778C77.3852 96.9308 77.1111 96.5254 76.7661 96.1851C76.421 95.8449 76.0117 95.5767 75.5621 95.396C75.1124 95.2153 74.6314 95.1258 74.1468 95.1326H61.958Z" fill="#F6D813"/>
</g>
<defs>
<linearGradient id="paint0_linear_904_235" x1="138.101" y1="144.252" x2="14.8912" y2="132.365" gradientUnits="userSpaceOnUse">
<stop stop-color="#24AC9D"/>
<stop offset="1" stop-color="#3B6FB5"/>
</linearGradient>
<clipPath id="clip0_904_235">
<rect width="144" height="144" fill="white"/>
</clipPath>
</defs>
</svg>
