<svg width="144" height="144" viewBox="0 0 144 144" fill="none" xmlns="http://www.w3.org/2000/svg">
<g clip-path="url(#clip0_904_211)">
<path opacity="0.6" d="M128.48 55.5399C141.336 62.7963 141.3 81.4386 128.417 88.6461L33.9733 141.482C21.4095 148.511 5.9725 139.346 6.00004 124.876L6.20183 18.8444C6.22937 4.37355 21.7012 -4.73188 34.2381 2.34462L128.48 55.5399Z" fill="url(#paint0_linear_904_211)"/>
<path d="M33.4683 33C28.5116 33 24.4089 37.1211 24.4089 42.1V91.4997C24.4089 96.4786 28.5116 100.6 33.4683 100.6H108.532C113.488 100.6 117.591 96.4786 117.591 91.4997V42.1C117.591 37.1211 113.488 33 108.532 33H33.4683ZM33.4683 40.8H108.532C109.295 40.8 109.826 41.3328 109.826 42.1V91.4997C109.826 92.2668 109.295 92.7997 108.532 92.7997H95.1584H86.4175H55.582H47.7575H33.4683C32.7046 92.7997 32.1741 92.2668 32.1741 91.4997V42.1C32.1741 41.3328 32.7046 40.8 33.4683 40.8ZM17.9379 103.2C17.4234 103.192 16.9126 103.288 16.4352 103.481C15.9577 103.673 15.5232 103.959 15.1568 104.322C14.7904 104.685 14.4994 105.117 14.3009 105.594C14.1023 106.071 14 106.583 14 107.1C14 107.616 14.1023 108.128 14.3009 108.605C14.4994 109.082 14.7904 109.514 15.1568 109.877C15.5232 110.24 15.9577 110.526 16.4352 110.719C16.9126 110.911 17.4234 111.007 17.9379 111H124.062C124.577 111.007 125.087 110.911 125.565 110.719C126.042 110.526 126.477 110.24 126.843 109.877C127.21 109.514 127.501 109.082 127.699 108.605C127.898 108.128 128 107.616 128 107.1C128 106.583 127.898 106.071 127.699 105.594C127.501 105.117 127.21 104.685 126.843 104.322C126.477 103.959 126.042 103.673 125.565 103.481C125.087 103.288 124.577 103.192 124.062 103.2H17.9379Z" fill="#F6D813"/>
<path fill-rule="evenodd" clip-rule="evenodd" d="M71 44.2666C66.1468 44.2666 62.0152 46.2351 59.3623 49.233C56.7095 52.2308 55.4696 56.0749 55.4696 59.8665C55.4696 63.6582 56.7095 67.5022 59.3623 70.5001C62.0152 73.4979 66.1468 75.4665 71 75.4665C75.8532 75.4665 79.9848 73.4979 82.6377 70.5001C85.2905 67.5022 86.5304 63.6582 86.5304 59.8665C86.5304 56.0749 85.2905 52.2308 82.6377 49.233C79.9848 46.2351 75.8532 44.2666 71 44.2666ZM76.834 54.4127C75.6043 53.023 73.9119 52.0666 71 52.0666C68.0881 52.0666 66.3957 53.023 65.166 54.4127C63.9363 55.8023 63.2348 57.8082 63.2348 59.8665C63.2348 61.9249 63.9363 63.9308 65.166 65.3204C66.3957 66.71 68.0881 67.6665 71 67.6665C73.9119 67.6665 75.6043 66.71 76.834 65.3204C78.0637 63.9308 78.7652 61.9249 78.7652 59.8665C78.7652 57.8082 78.0637 55.8023 76.834 54.4127Z" fill="#F6D813"/>
<path fill-rule="evenodd" clip-rule="evenodd" d="M56.7638 78.9331C51.8072 78.9331 47.7044 83.0542 47.7044 88.0331C47.7044 89.6537 47.7224 91.2426 47.7575 92.7997C47.7575 100.6 94.2956 100.6 94.2956 92.7997C94.3141 91.6608 94.2956 89.2052 94.2956 88.0331C94.2956 83.0542 90.1928 78.9331 85.2362 78.9331H56.7638ZM85.2362 86.7331H56.7638C56.0001 86.7331 55.4696 87.2659 55.4696 88.0331C55.4696 89.6798 55.508 91.2687 55.582 92.7997H86.4175C86.4915 91.2687 86.5304 89.6798 86.5304 88.0331C86.5304 87.2659 85.9999 86.7331 85.2362 86.7331Z" fill="#F6D813"/>
</g>
<defs>
<linearGradient id="paint0_linear_904_211" x1="138.101" y1="144.252" x2="14.8912" y2="132.365" gradientUnits="userSpaceOnUse">
<stop stop-color="#24AC9D"/>
<stop offset="1" stop-color="#3B6FB5"/>
</linearGradient>
<clipPath id="clip0_904_211">
<rect width="144" height="144" fill="white"/>
</clipPath>
</defs>
</svg>
