<svg width="144" height="144" viewBox="0 0 144 144" fill="none" xmlns="http://www.w3.org/2000/svg">
<g clip-path="url(#clip0_904_151)">
<path opacity="0.6" d="M128.48 55.5399C141.336 62.7963 141.3 81.4386 128.417 88.6461L33.9733 141.482C21.4095 148.511 5.9725 139.346 6.00004 124.876L6.20183 18.8444C6.22937 4.37355 21.7012 -4.73188 34.2381 2.34462L128.48 55.5399Z" fill="url(#paint0_linear_904_151)"/>
<path d="M37.7143 22C31.8071 22 27 26.8071 27 32.7143V106.524C27 112.431 31.8071 117.238 37.7143 117.238H65.3371C65.1799 116.469 65.0952 115.671 65.0952 114.857V110.095H37.7143C35.7452 110.095 34.1429 108.493 34.1429 106.524V32.7143C34.1429 30.7452 35.7452 29.1429 37.7143 29.1429H65.0952V49.381C65.0952 55.2881 69.9024 60.0952 75.8095 60.0952H96.0476V69.619H103.19V56.5238C103.19 55.5381 102.79 54.6451 102.144 53.9987L71.1918 23.0463C70.5456 22.3999 69.6536 22 68.6667 22H37.7143ZM72.2381 34.1931L90.9974 52.9524H75.8095C73.8405 52.9524 72.2381 51.35 72.2381 49.381V34.1931ZM49.619 72C47.6452 72 46.0476 73.6 46.0476 75.5714C46.0476 77.5429 47.6452 79.1429 49.619 79.1429H65.3371C65.9275 76.2405 67.5783 73.719 69.8664 72H49.619ZM77 74.381C73.0548 74.381 69.8571 77.5786 69.8571 81.5238V83.9048H117.476V81.5238C117.476 77.5786 114.279 74.381 110.333 74.381H77ZM49.619 88.6667C47.6452 88.6667 46.0476 90.2667 46.0476 92.2381C46.0476 94.2095 47.6452 95.8095 49.619 95.8095H65.0952V88.6667H49.619ZM69.8571 88.6667V114.857C69.8571 118.802 73.0548 122 77 122H110.333C114.279 122 117.476 118.802 117.476 114.857V88.6667H69.8571ZM80.5714 95.8095C82.5429 95.8095 84.1429 97.4095 84.1429 99.381C84.1429 101.352 82.5429 102.952 80.5714 102.952C78.6 102.952 77 101.352 77 99.381C77 97.4095 78.6 95.8095 80.5714 95.8095ZM93.6667 95.8095C95.6381 95.8095 97.2381 97.4095 97.2381 99.381C97.2381 101.352 95.6381 102.952 93.6667 102.952C91.6952 102.952 90.0952 101.352 90.0952 99.381C90.0952 97.4095 91.6952 95.8095 93.6667 95.8095ZM106.762 95.8095C108.733 95.8095 110.333 97.4095 110.333 99.381C110.333 101.352 108.733 102.952 106.762 102.952C104.79 102.952 103.19 101.352 103.19 99.381C103.19 97.4095 104.79 95.8095 106.762 95.8095ZM80.5714 107.714C82.5429 107.714 84.1429 109.314 84.1429 111.286C84.1429 113.257 82.5429 114.857 80.5714 114.857C78.6 114.857 77 113.257 77 111.286C77 109.314 78.6 107.714 80.5714 107.714ZM93.6667 107.714C95.6381 107.714 97.2381 109.314 97.2381 111.286C97.2381 113.257 95.6381 114.857 93.6667 114.857C91.6952 114.857 90.0952 113.257 90.0952 111.286C90.0952 109.314 91.6952 107.714 93.6667 107.714Z" fill="#F6D813"/>
</g>
<defs>
<linearGradient id="paint0_linear_904_151" x1="138.101" y1="144.252" x2="14.8912" y2="132.365" gradientUnits="userSpaceOnUse">
<stop stop-color="#24AC9D"/>
<stop offset="1" stop-color="#3B6FB5"/>
</linearGradient>
<clipPath id="clip0_904_151">
<rect width="144" height="144" fill="white"/>
</clipPath>
</defs>
</svg>
