<svg width="144" height="144" viewBox="0 0 144 144" fill="none" xmlns="http://www.w3.org/2000/svg">
<g clip-path="url(#clip0_904_208)">
<path opacity="0.6" d="M128.48 55.5399C141.336 62.7963 141.3 81.4386 128.417 88.6461L33.9733 141.482C21.4095 148.511 5.9725 139.346 6.00004 124.876L6.20183 18.8444C6.22937 4.37355 21.7012 -4.73188 34.2381 2.34462L128.48 55.5399Z" fill="url(#paint0_linear_904_208)"/>
<path d="M45.8088 26.9586C44.811 26.9877 43.8637 27.4039 43.1675 28.1192L30.5162 40.7705L25.5487 35.803C25.1947 35.4343 24.7707 35.1399 24.3015 34.9371C23.8323 34.7344 23.3273 34.6272 22.8162 34.622C22.305 34.6168 21.798 34.7137 21.3248 34.9069C20.8516 35.1001 20.4216 35.3858 20.0602 35.7472C19.6988 36.1087 19.4131 36.5386 19.2199 37.0118C19.0267 37.485 18.9298 37.9921 18.935 38.5032C18.9402 39.0143 19.0473 39.5193 19.2501 39.9885C19.4529 40.4577 19.7473 40.8817 20.116 41.2357L27.7998 48.9195C28.5203 49.6398 29.4974 50.0444 30.5162 50.0444C31.5349 50.0444 32.512 49.6398 33.2325 48.9195L48.6002 33.5519C49.1544 33.0121 49.5328 32.3175 49.6858 31.5591C49.8388 30.8007 49.7593 30.0138 49.4576 29.3013C49.156 28.5889 48.6463 27.9841 47.9953 27.5661C47.3442 27.1481 46.5821 26.9364 45.8088 26.9586ZM61.2514 37.2387C60.7424 37.2315 60.2369 37.3256 59.7645 37.5154C59.292 37.7053 58.862 37.9871 58.4995 38.3446C58.1369 38.7021 57.849 39.128 57.6525 39.5977C57.456 40.0674 57.3548 40.5715 57.3548 41.0806C57.3548 41.5898 57.456 42.0939 57.6525 42.5636C57.849 43.0333 58.1369 43.4592 58.4995 43.8167C58.862 44.1742 59.292 44.456 59.7645 44.6459C60.2369 44.8357 60.7424 44.9298 61.2514 44.9226H115.038C115.547 44.9298 116.053 44.8357 116.525 44.6459C116.998 44.456 117.428 44.1742 117.79 43.8167C118.153 43.4592 118.441 43.0333 118.637 42.5636C118.834 42.0939 118.935 41.5898 118.935 41.0806C118.935 40.5715 118.834 40.0674 118.637 39.5977C118.441 39.128 118.153 38.7021 117.79 38.3446C117.428 37.9871 116.998 37.7053 116.525 37.5154C116.053 37.3256 115.547 37.2315 115.038 37.2387H61.2514ZM43.2875 57.6739C42.2729 57.6978 41.309 58.1223 40.6062 58.8545L34.3581 65.1026L28.11 58.8545C27.7519 58.4857 27.3234 58.1925 26.8499 57.9923C26.3765 57.7921 25.8677 57.6889 25.3536 57.6889C24.589 57.6891 23.8419 57.9174 23.2077 58.3446C22.5736 58.7718 22.0814 59.3785 21.794 60.087C21.5066 60.7955 21.4371 61.5737 21.5945 62.3219C21.7518 63.0701 22.1288 63.7544 22.6773 64.2872L28.9254 70.5353L22.6773 76.7834C22.3086 77.1374 22.0142 77.5614 21.8114 78.0306C21.6086 78.4998 21.5015 79.0048 21.4963 79.5159C21.4911 80.027 21.5879 80.5341 21.7811 81.0073C21.9743 81.4805 22.26 81.9104 22.6215 82.2719C22.9829 82.6333 23.4128 82.919 23.8861 83.1122C24.3593 83.3054 24.8663 83.4023 25.3774 83.3971C25.8886 83.3919 26.3935 83.2847 26.8627 83.082C27.3319 82.8792 27.756 82.5848 28.11 82.2161L34.3581 75.968L40.6062 82.2161C40.9602 82.5848 41.3842 82.8792 41.8534 83.082C42.3226 83.2847 42.8276 83.3919 43.3387 83.3971C43.8498 83.4023 44.3569 83.3054 44.8301 83.1122C45.3033 82.919 45.7332 82.6333 46.0947 82.2719C46.4561 81.9104 46.7418 81.4805 46.935 81.0073C47.1282 80.5341 47.2251 80.027 47.2199 79.5159C47.2147 79.0048 47.1075 78.4998 46.9048 78.0306C46.702 77.5614 46.4076 77.1374 46.0389 76.7834L39.7908 70.5353L46.0389 64.2872C46.5976 63.751 46.9812 63.0584 47.1395 62.3004C47.2977 61.5424 47.2233 60.7542 46.9258 60.0392C46.6283 59.3242 46.1218 58.7158 45.4726 58.2937C44.8233 57.8717 44.0617 57.6556 43.2875 57.6739ZM61.2514 67.974C60.7424 67.9668 60.2369 68.0609 59.7645 68.2507C59.292 68.4406 58.862 68.7224 58.4995 69.0799C58.1369 69.4373 57.849 69.8633 57.6525 70.333C57.456 70.8027 57.3548 71.3068 57.3548 71.8159C57.3548 72.3251 57.456 72.8291 57.6525 73.2988C57.849 73.7685 58.1369 74.1945 58.4995 74.552C58.862 74.9094 59.292 75.1913 59.7645 75.3811C60.2369 75.571 60.7424 75.665 61.2514 75.6578H115.038C115.547 75.665 116.053 75.571 116.525 75.3811C116.998 75.1913 117.428 74.9094 117.79 74.552C118.153 74.1945 118.441 73.7685 118.637 73.2988C118.834 72.8291 118.935 72.3251 118.935 71.8159C118.935 71.3068 118.834 70.8027 118.637 70.333C118.441 69.8633 118.153 69.4373 117.79 69.0799C117.428 68.7224 116.998 68.4406 116.525 68.2507C116.053 68.0609 115.547 67.9668 115.038 67.974H61.2514ZM34.3581 88.4642C29.4406 88.4642 25.2702 91.9805 24.3181 96.6633C24.2053 97.1623 24.1933 97.6788 24.2828 98.1824C24.3724 98.6861 24.5615 99.1669 24.8393 99.5965C25.1171 100.026 25.4779 100.396 25.9005 100.684C26.3231 100.973 26.799 101.174 27.3003 101.275C27.8016 101.377 28.3183 101.378 28.8199 101.278C29.3215 101.177 29.7981 100.978 30.2216 100.691C30.645 100.404 31.0069 100.035 31.286 99.6063C31.5651 99.1776 31.7558 98.6974 31.8468 98.194C32.0831 97.032 33.0772 96.148 34.3581 96.148C35.8198 96.148 36.9194 97.2475 36.9194 98.7093C36.9194 100.374 35.9875 101.556 34.3231 103.081C33.4908 103.844 32.5493 104.576 31.6017 105.498C30.6541 106.419 29.2355 107.674 29.2355 110.235C29.2257 111.176 29.5615 112.088 30.1791 112.797C30.7967 113.507 31.6533 113.966 32.5865 114.086C33.5196 114.206 34.4645 113.98 35.2419 113.45C36.0193 112.92 36.5752 112.123 36.8043 111.21C36.797 111.202 36.7709 111.189 36.9544 111.01C37.4475 110.531 38.4269 109.742 39.5156 108.744C41.6931 106.748 44.6032 103.448 44.6032 98.7093C44.6032 93.0968 39.9706 88.4642 34.3581 88.4642ZM61.2514 101.271C60.7424 101.263 60.2369 101.357 59.7645 101.547C59.292 101.737 58.862 102.019 58.4995 102.376C58.1369 102.734 57.849 103.16 57.6525 103.63C57.456 104.099 57.3548 104.603 57.3548 105.112C57.3548 105.622 57.456 106.126 57.6525 106.595C57.849 107.065 58.1369 107.491 58.4995 107.849C58.862 108.206 59.292 108.488 59.7645 108.678C60.2369 108.868 60.7424 108.962 61.2514 108.954H115.038C115.547 108.962 116.053 108.868 116.525 108.678C116.998 108.488 117.428 108.206 117.79 107.849C118.153 107.491 118.441 107.065 118.637 106.595C118.834 106.126 118.935 105.622 118.935 105.112C118.935 104.603 118.834 104.099 118.637 103.63C118.441 103.16 118.153 102.734 117.79 102.376C117.428 102.019 116.998 101.737 116.525 101.547C116.053 101.357 115.547 101.263 115.038 101.271H61.2514ZM33.0774 116.638C30.9567 116.638 29.2355 118.359 29.2355 120.48C29.2355 122.601 30.9567 124.322 33.0774 124.322C35.1982 124.322 36.9194 122.601 36.9194 120.48C36.9194 118.359 35.1982 116.638 33.0774 116.638Z" fill="#F6D813"/>
</g>
<defs>
<linearGradient id="paint0_linear_904_208" x1="138.101" y1="144.252" x2="14.8912" y2="132.365" gradientUnits="userSpaceOnUse">
<stop stop-color="#24AC9D"/>
<stop offset="1" stop-color="#3B6FB5"/>
</linearGradient>
<clipPath id="clip0_904_208">
<rect width="144" height="144" fill="white"/>
</clipPath>
</defs>
</svg>
