<svg width="144" height="144" viewBox="0 0 144 144" fill="none" xmlns="http://www.w3.org/2000/svg">
<g clip-path="url(#clip0_904_226)">
<path opacity="0.6" d="M128.48 55.5399C141.336 62.7963 141.3 81.4386 128.417 88.6461L33.9733 141.482C21.4095 148.511 5.9725 139.346 6.00004 124.876L6.20183 18.8444C6.22937 4.37355 21.7012 -4.73188 34.2381 2.34462L128.48 55.5399Z" fill="url(#paint0_linear_904_226)"/>
<path d="M63.3835 23C57.8752 23 53.3684 27.5 53.3684 33H40.015C34.5068 33 30 37.5 30 43V103C30 108.467 34.5068 113 40.015 113H63.2531C62.2182 110.9 61.3812 108.667 60.8471 106.333H40.015C38.1122 106.333 36.6767 104.867 36.6767 103V43C36.6767 41.1 38.1122 39.6667 40.015 39.6667H53.3684V43C53.3684 44.8333 54.8707 46.3333 56.7068 46.3333H70.0602C71.8962 46.3333 73.3985 44.8333 73.3985 43V39.6667H86.7519C88.6214 39.6667 90.0902 41.1 90.0902 43V69.6276H90.1228C92.3929 69.6276 94.6304 69.8958 96.7669 70.3958V43C96.7669 37.5 92.2268 33 86.7519 33H73.3985C73.3985 27.5 68.8583 23 63.3835 23ZM63.3835 29.6667C65.2529 29.6667 66.7218 31.1 66.7218 33C66.7218 34.8667 65.2529 36.3333 63.3835 36.3333C61.4806 36.3333 60.0451 34.8667 60.0451 33C60.0451 31.1 61.4806 29.6667 63.3835 29.6667ZM90.0902 76.3333C89.1889 76.3333 88.3895 76.6977 87.7886 77.2643C87.1543 77.8643 86.7519 78.7 86.7519 79.6667V83C86.7185 84.8333 88.2215 86.3326 90.0576 86.3659C91.66 86.3659 93.0629 85.2307 93.3634 83.6641C100.975 85.1974 106.782 91.5667 106.782 99.6667C106.782 108.9 99.3374 116.333 90.0902 116.333C80.8096 116.333 73.3985 108.9 73.3985 99.6667C73.3985 95.0333 75.2711 90.8966 78.2756 87.8633C79.611 86.5966 79.642 84.4961 78.3734 83.1628C77.7057 82.4628 76.8354 82.1276 75.9675 82.1276C75.1329 82.1276 74.3001 82.4318 73.6658 83.0651L73.568 83.1628C69.3283 87.3961 66.7218 93.2333 66.7218 99.6667C66.7218 112.5 77.2042 123 90.0902 123C102.943 123 113.459 112.5 113.459 99.6667C113.459 86.8 102.943 76.3333 90.0902 76.3333ZM85.0175 91.2943C83.1814 91.2609 81.6792 92.7617 81.6792 94.5951C81.6792 95.5284 82.0482 96.3974 82.7159 96.9974L87.7234 102.03C88.992 103.33 91.1282 103.395 92.4636 102.095C93.7655 100.828 93.8307 98.7279 92.5288 97.3945C92.4954 97.3612 92.497 97.3302 92.4636 97.2969L87.4169 92.2969C86.7827 91.6302 85.9522 91.2609 85.0175 91.2943Z" fill="#F6D813"/>
</g>
<defs>
<linearGradient id="paint0_linear_904_226" x1="138.101" y1="144.252" x2="14.8912" y2="132.365" gradientUnits="userSpaceOnUse">
<stop stop-color="#24AC9D"/>
<stop offset="1" stop-color="#3B6FB5"/>
</linearGradient>
<clipPath id="clip0_904_226">
<rect width="144" height="144" fill="white"/>
</clipPath>
</defs>
</svg>
