<svg width="144" height="144" viewBox="0 0 144 144" fill="none" xmlns="http://www.w3.org/2000/svg">
<g clip-path="url(#clip0_904_160)">
<path opacity="0.6" d="M128.48 55.5399C141.336 62.7963 141.3 81.4386 128.417 88.6461L33.9733 141.482C21.4095 148.511 5.9725 139.346 6.00004 124.876L6.20183 18.8444C6.22937 4.37355 21.7012 -4.73188 34.2381 2.34462L128.48 55.5399Z" fill="url(#paint0_linear_904_160)"/>
<path d="M37.8208 29C35.1007 29 32.4919 30.0806 30.5685 32.004C28.6451 33.9275 27.5645 36.5362 27.5645 39.2564C27.5645 41.9765 28.6451 44.5853 30.5685 46.5087C32.4919 48.4322 35.1007 49.5127 37.8208 49.5127C40.541 49.5127 43.1498 48.4322 45.0732 46.5087C46.9966 44.5853 48.0772 41.9765 48.0772 39.2564C48.0772 36.5362 46.9966 33.9275 45.0732 32.004C43.1498 30.0806 40.541 29 37.8208 29ZM49.2641 29C51.1641 31.1179 52.4827 33.7615 52.975 36.6923H112.18V85.41H53.2054V93.1023H121.154C123.277 93.1023 125 91.3818 125 89.2562C125 87.1306 123.277 85.41 121.154 85.41H119.872V32.8461C119.872 30.7205 118.149 29 116.026 29H49.2641ZM41.5919 54.6009C41.316 54.598 41.0407 54.6249 40.7706 54.681C40.6402 54.6744 40.5169 54.6409 40.3849 54.6409H32.6927C28.444 54.6409 25.0004 58.0845 25.0004 62.3332V93.1023V117.461C24.9932 117.971 25.0873 118.477 25.2774 118.95C25.4674 119.423 25.7496 119.853 26.1075 120.216C26.4653 120.579 26.8917 120.867 27.362 121.064C27.8322 121.261 28.3368 121.362 28.8465 121.362C29.3562 121.362 29.8609 121.261 30.3311 121.064C30.8013 120.867 31.2277 120.579 31.5856 120.216C31.9435 119.853 32.2256 119.423 32.4157 118.95C32.6057 118.477 32.6999 117.971 32.6927 117.461V93.1023H40.3849V117.461C40.3777 117.971 40.4719 118.477 40.6619 118.95C40.852 119.423 41.1342 119.853 41.492 120.216C41.8499 120.579 42.2763 120.867 42.7465 121.064C43.2167 121.261 43.7214 121.362 44.2311 121.362C44.7408 121.362 45.2454 121.261 45.7156 121.064C46.1859 120.867 46.6123 120.579 46.9701 120.216C47.328 119.853 47.6102 119.423 47.8002 118.95C47.9903 118.477 48.0844 117.971 48.0772 117.461V84.128V64.3164L58.559 67.3112C59.378 67.5456 60.2516 67.5016 61.0429 67.186L73.8634 62.0578C74.7101 61.7331 75.4149 61.1197 75.8533 60.3258C76.2917 59.532 76.4356 58.6088 76.2595 57.7192C76.0833 56.8296 75.5986 56.0309 74.8908 55.464C74.183 54.8971 73.2976 54.5985 72.391 54.6209C71.916 54.6332 71.4474 54.7333 71.0088 54.9164L59.4103 59.5538L42.7237 54.7912C42.358 54.6715 41.9765 54.6073 41.5919 54.6009Z" fill="#F6D813"/>
<path d="M100.913 43.8019C101.61 43.0858 102.559 42.6691 103.557 42.64C104.332 42.6177 105.095 42.8297 105.746 43.2481C106.398 43.6666 106.908 44.2721 107.21 44.9853C107.512 45.6986 107.592 46.4864 107.439 47.2456C107.286 48.0049 106.907 48.7002 106.352 49.2406L93.5314 62.061C92.8101 62.782 91.832 63.1871 90.8121 63.1871C89.7922 63.1871 88.8141 62.782 88.0928 62.061L81.6825 55.6508C81.3134 55.2964 81.0187 54.8719 80.8157 54.4022C80.6127 53.9325 80.5055 53.427 80.5002 52.9153C80.495 52.4036 80.592 51.896 80.7854 51.4222C80.9788 50.9485 81.2648 50.5181 81.6267 50.1563C81.9885 49.7944 82.4189 49.5084 82.8927 49.315C83.3664 49.1216 83.874 49.0246 84.3857 49.0298C84.8974 49.035 85.4029 49.1423 85.8726 49.3453C86.3423 49.5483 86.7668 49.843 87.1212 50.2121L90.8121 53.903L100.913 43.8019Z" fill="#F6D813"/>
</g>
<defs>
<linearGradient id="paint0_linear_904_160" x1="138.101" y1="144.252" x2="14.8912" y2="132.365" gradientUnits="userSpaceOnUse">
<stop stop-color="#24AC9D"/>
<stop offset="1" stop-color="#3B6FB5"/>
</linearGradient>
<clipPath id="clip0_904_160">
<rect width="144" height="144" fill="white"/>
</clipPath>
</defs>
</svg>
