<svg width="144" height="144" viewBox="0 0 144 144" fill="none" xmlns="http://www.w3.org/2000/svg">
<g clip-path="url(#clip0_904_241)">
<path opacity="0.6" d="M128.48 55.5399C141.336 62.7963 141.3 81.4386 128.417 88.6461L33.9733 141.482C21.4095 148.511 5.9725 139.346 6.00004 124.876L6.20183 18.8444C6.22937 4.37355 21.7012 -4.73188 34.2381 2.34462L128.48 55.5399Z" fill="url(#paint0_linear_904_241)"/>
<path d="M36.75 26C29.1675 26 23 32.17 23 39.75V102.25C23 109.83 29.1675 116 36.75 116H80.7588C80.6038 115.182 80.5 114.352 80.5 113.5V108.5H36.75C33.305 108.5 30.5 105.697 30.5 102.25V39.75C30.5 36.3025 33.305 33.5 36.75 33.5H99.25C102.695 33.5 105.5 36.3025 105.5 39.75V68.5635C108.247 68.7735 110.802 69.6681 113 71.0781V39.75C113 32.17 106.832 26 99.25 26H36.75ZM60.4268 43.4658C59.4529 43.4942 58.5282 43.9005 57.8486 44.5986L48 54.4473L44.4014 50.8486C44.0558 50.4887 43.6419 50.2014 43.184 50.0035C42.726 49.8055 42.2331 49.701 41.7342 49.6959C41.2353 49.6908 40.7404 49.7854 40.2785 49.9739C39.8166 50.1625 39.397 50.4414 39.0442 50.7942C38.6914 51.147 38.4125 51.5666 38.2239 52.0285C38.0354 52.4904 37.9408 52.9853 37.9459 53.4842C37.951 53.9831 38.0555 54.476 38.2535 54.934C38.4514 55.3919 38.7387 55.8058 39.0986 56.1514L45.3486 62.4014C46.0519 63.1044 47.0056 63.4993 48 63.4993C48.9944 63.4993 49.9481 63.1044 50.6514 62.4014L63.1514 49.9014C63.6924 49.3745 64.0617 48.6965 64.211 47.9563C64.3604 47.216 64.2828 46.4479 63.9883 45.7525C63.6939 45.0571 63.1964 44.4667 62.5609 44.0587C61.9255 43.6507 61.1816 43.4441 60.4268 43.4658ZM71.75 51C71.2531 50.993 70.7597 51.0848 70.2986 51.2701C69.8375 51.4554 69.4178 51.7305 69.0639 52.0794C68.71 52.4283 68.429 52.8441 68.2372 53.3026C68.0454 53.761 67.9466 54.253 67.9466 54.75C67.9466 55.247 68.0454 55.739 68.2372 56.1974C68.429 56.6559 68.71 57.0717 69.0639 57.4206C69.4178 57.7695 69.8375 58.0446 70.2986 58.2299C70.7597 58.4152 71.2531 58.507 71.75 58.5H94.25C94.7469 58.507 95.2403 58.4152 95.7014 58.2299C96.1625 58.0446 96.5822 57.7695 96.9361 57.4206C97.29 57.0717 97.571 56.6559 97.7628 56.1974C97.9546 55.739 98.0534 55.247 98.0534 54.75C98.0534 54.253 97.9546 53.761 97.7628 53.3026C97.571 52.8441 97.29 52.4283 96.9361 52.0794C96.5822 51.7305 96.1625 51.4554 95.7014 51.2701C95.2403 51.0848 94.7469 50.993 94.25 51H71.75ZM104.25 73.5C101.266 73.5 98.4048 74.6853 96.295 76.795C94.1853 78.9048 93 81.7663 93 84.75C93 87.7337 94.1853 90.5952 96.295 92.705C98.4048 94.8147 101.266 96 104.25 96C107.234 96 110.095 94.8147 112.205 92.705C114.315 90.5952 115.5 87.7337 115.5 84.75C115.5 81.7663 114.315 78.9048 112.205 76.795C110.095 74.6853 107.234 73.5 104.25 73.5ZM60.4268 75.9658C59.4529 75.9942 58.5282 76.4005 57.8486 77.0986L48 86.9473L44.4014 83.3486C44.0558 82.9887 43.6419 82.7014 43.184 82.5035C42.726 82.3055 42.2331 82.201 41.7342 82.1959C41.2353 82.1908 40.7404 82.2854 40.2785 82.4739C39.8166 82.6625 39.397 82.9414 39.0442 83.2942C38.6914 83.647 38.4125 84.0666 38.2239 84.5285C38.0354 84.9904 37.9408 85.4853 37.9459 85.9842C37.951 86.4831 38.0555 86.976 38.2535 87.434C38.4514 87.8919 38.7387 88.3058 39.0986 88.6514L45.3486 94.9014C46.0519 95.6044 47.0056 95.9993 48 95.9993C48.9944 95.9993 49.9481 95.6044 50.6514 94.9014L63.1514 82.4014C63.6924 81.8745 64.0617 81.1965 64.211 80.4563C64.3604 79.716 64.2828 78.9479 63.9883 78.2525C63.6939 77.5571 63.1964 76.9667 62.5609 76.5587C61.9255 76.1507 61.1816 75.9441 60.4268 75.9658ZM71.75 83.5C69.6775 83.5 68 85.18 68 87.25C68 89.32 69.6775 91 71.75 91H89.25C88.4475 89.075 88 86.965 88 84.75C88 84.3275 88.0335 83.915 88.0635 83.5H71.75ZM93 101C88.8575 101 85.5 104.357 85.5 108.5V113.5C85.5 120.402 93.895 126 104.25 126C114.605 126 123 120.402 123 113.5V108.5C123 104.357 119.642 101 115.5 101H93Z" fill="#F6D813"/>
</g>
<defs>
<linearGradient id="paint0_linear_904_241" x1="138.101" y1="144.252" x2="14.8912" y2="132.365" gradientUnits="userSpaceOnUse">
<stop stop-color="#24AC9D"/>
<stop offset="1" stop-color="#3B6FB5"/>
</linearGradient>
<clipPath id="clip0_904_241">
<rect width="144" height="144" fill="white"/>
</clipPath>
</defs>
</svg>
