<svg width="144" height="144" viewBox="0 0 144 144" fill="none" xmlns="http://www.w3.org/2000/svg">
<g clip-path="url(#clip0_904_232)">
<path opacity="0.6" d="M128.48 55.5399C141.336 62.7963 141.3 81.4386 128.417 88.6461L33.9733 141.482C21.4095 148.511 5.9725 139.346 6.00004 124.876L6.20183 18.8444C6.22937 4.37355 21.7012 -4.73188 34.2381 2.34462L128.48 55.5399Z" fill="url(#paint0_linear_904_232)"/>
<path d="M33.25 22C27.0475 22 22 27.0475 22 33.25V105.75C22 111.952 27.0475 117 33.25 117H44.0508C42.0708 114.942 40.6341 112.367 39.9541 109.5H33.25C31.1825 109.5 29.5 107.817 29.5 105.75V33.25C29.5 31.1825 31.1825 29.5 33.25 29.5H39.9541C40.6366 26.6325 42.0708 24.0575 44.0508 22H33.25ZM55.75 22C49.5812 22 44.5 27.0812 44.5 33.25V105.75C44.5 111.919 49.5812 117 55.75 117H110.75C116.919 117 122 111.919 122 105.75V55.75C122 54.7555 121.605 53.8018 120.901 53.0986L90.9014 23.0986C90.1982 22.3954 89.2445 22.0002 88.25 22H55.75ZM55.75 29.5H84.5V48.25C84.5 54.4188 89.5812 59.5 95.75 59.5H114.5V105.75C114.5 107.866 112.866 109.5 110.75 109.5H55.75C53.6338 109.5 52 107.866 52 105.75V33.25C52 31.1338 53.6338 29.5 55.75 29.5ZM92 34.8027L109.197 52H95.75C93.6338 52 92 50.3662 92 48.25V34.8027ZM68.25 72C67.7531 71.993 67.2597 72.0848 66.7986 72.2701C66.3375 72.4554 65.9178 72.7305 65.5639 73.0794C65.21 73.4283 64.929 73.8441 64.7372 74.3026C64.5454 74.761 64.4466 75.253 64.4466 75.75C64.4466 76.247 64.5454 76.739 64.7372 77.1974C64.929 77.6559 65.21 78.0717 65.5639 78.4206C65.9178 78.7695 66.3375 79.0446 66.7986 79.2299C67.2597 79.4152 67.7531 79.507 68.25 79.5H98.25C98.7469 79.507 99.2403 79.4152 99.7014 79.2299C100.163 79.0446 100.582 78.7695 100.936 78.4206C101.29 78.0717 101.571 77.6559 101.763 77.1974C101.955 76.739 102.053 76.247 102.053 75.75C102.053 75.253 101.955 74.761 101.763 74.3026C101.571 73.8441 101.29 73.4283 100.936 73.0794C100.582 72.7305 100.163 72.4554 99.7014 72.2701C99.2403 72.0848 98.7469 71.993 98.25 72H68.25ZM68.25 89.5C67.7531 89.493 67.2597 89.5848 66.7986 89.7701C66.3375 89.9554 65.9178 90.2305 65.5639 90.5794C65.21 90.9283 64.929 91.3441 64.7372 91.8025C64.5454 92.261 64.4466 92.753 64.4466 93.25C64.4466 93.747 64.5454 94.239 64.7372 94.6974C64.929 95.1559 65.21 95.5717 65.5639 95.9206C65.9178 96.2695 66.3375 96.5446 66.7986 96.7299C67.2597 96.9152 67.7531 97.007 68.25 97H90.75C91.2469 97.007 91.7403 96.9152 92.2014 96.7299C92.6625 96.5446 93.0822 96.2695 93.4361 95.9206C93.79 95.5717 94.071 95.1559 94.2628 94.6974C94.4546 94.239 94.5534 93.747 94.5534 93.25C94.5534 92.753 94.4546 92.261 94.2628 91.8025C94.071 91.3441 93.79 90.9283 93.4361 90.5794C93.0822 90.2305 92.6625 89.9554 92.2014 89.7701C91.7403 89.5848 91.2469 89.493 90.75 89.5H68.25Z" fill="#F6D813"/>
</g>
<defs>
<linearGradient id="paint0_linear_904_232" x1="138.101" y1="144.252" x2="14.8912" y2="132.365" gradientUnits="userSpaceOnUse">
<stop stop-color="#24AC9D"/>
<stop offset="1" stop-color="#3B6FB5"/>
</linearGradient>
<clipPath id="clip0_904_232">
<rect width="144" height="144" fill="white"/>
</clipPath>
</defs>
</svg>
