<svg width="144" height="144" viewBox="0 0 144 144" fill="none" xmlns="http://www.w3.org/2000/svg">
<g clip-path="url(#clip0_904_247)">
<path opacity="0.6" d="M128.48 55.5399C141.336 62.7963 141.3 81.4386 128.417 88.6461L33.9733 141.482C21.4095 148.511 5.9725 139.346 6.00004 124.876L6.20183 18.8444C6.22937 4.37355 21.7012 -4.73188 34.2381 2.34462L128.48 55.5399Z" fill="url(#paint0_linear_904_247)"/>
<path d="M34.8208 27C32.1007 27 29.4919 28.0806 27.5685 30.004C25.6451 31.9275 24.5645 34.5362 24.5645 37.2564C24.5645 39.9765 25.6451 42.5853 27.5685 44.5087C29.4919 46.4322 32.1007 47.5127 34.8208 47.5127C37.541 47.5127 40.1498 46.4322 42.0732 44.5087C43.9966 42.5853 45.0772 39.9765 45.0772 37.2564C45.0772 34.5362 43.9966 31.9275 42.0732 30.004C40.1498 28.0806 37.541 27 34.8208 27ZM46.2641 27C48.1641 29.1179 49.4827 31.7615 49.975 34.6923H109.18V83.41H50.2054V91.1023H118.154C120.277 91.1023 122 89.3818 122 87.2562C122 85.1305 120.277 83.41 118.154 83.41H116.872V30.8461C116.872 28.7205 115.149 27 113.026 27H46.2641ZM54.0515 39.8205C53.5419 39.8133 53.0359 39.9074 52.5629 40.0975C52.09 40.2875 51.6595 40.5697 51.2965 40.9275C50.9336 41.2854 50.6454 41.7118 50.4487 42.182C50.2519 42.6523 50.1506 43.1569 50.1506 43.6666C50.1506 44.1763 50.2519 44.6809 50.4487 45.1512C50.6454 45.6214 50.9336 46.0478 51.2965 46.4057C51.6595 46.7635 52.09 47.0457 52.5629 47.2357C53.0359 47.4258 53.5419 47.5199 54.0515 47.5127H61.7438C62.2535 47.5199 62.7595 47.4258 63.2324 47.2357C63.7054 47.0457 64.1359 46.7635 64.4988 46.4057C64.8618 46.0478 65.15 45.6214 65.3467 45.1512C65.5434 44.6809 65.6447 44.1763 65.6447 43.6666C65.6447 43.1569 65.5434 42.6523 65.3467 42.182C65.15 41.7118 64.8618 41.2854 64.4988 40.9275C64.1359 40.5697 63.7054 40.2875 63.2324 40.0975C62.7595 39.9074 62.2535 39.8133 61.7438 39.8205H54.0515ZM74.5643 39.8205C74.0546 39.8133 73.5486 39.9074 73.0757 40.0975C72.6027 40.2875 72.1723 40.5697 71.8093 40.9275C71.4463 41.2854 71.1581 41.7118 70.9614 42.182C70.7647 42.6523 70.6634 43.1569 70.6634 43.6666C70.6634 44.1763 70.7647 44.6809 70.9614 45.1512C71.1581 45.6214 71.4463 46.0478 71.8093 46.4057C72.1723 46.7635 72.6027 47.0457 73.0757 47.2357C73.5486 47.4258 74.0546 47.5199 74.5643 47.5127H97.6411C98.1508 47.5199 98.6568 47.4258 99.1298 47.2357C99.6027 47.0457 100.033 46.7635 100.396 46.4057C100.759 46.0478 101.047 45.6214 101.244 45.1512C101.441 44.6809 101.542 44.1763 101.542 43.6666C101.542 43.1569 101.441 42.6523 101.244 42.182C101.047 41.7118 100.759 41.2854 100.396 40.9275C100.033 40.5697 99.6027 40.2875 99.1298 40.0975C98.6568 39.9074 98.1508 39.8133 97.6411 39.8205H74.5643ZM38.5919 52.6009C38.316 52.598 38.0407 52.6249 37.7706 52.681C37.6402 52.6744 37.5169 52.6409 37.3849 52.6409H29.6927C25.444 52.6409 22.0004 56.0845 22.0004 60.3332V91.1023V115.461C21.9932 115.971 22.0873 116.477 22.2774 116.95C22.4674 117.423 22.7496 117.853 23.1075 118.216C23.4653 118.579 23.8917 118.867 24.362 119.064C24.8322 119.261 25.3368 119.362 25.8465 119.362C26.3562 119.362 26.8609 119.261 27.3311 119.064C27.8013 118.867 28.2277 118.579 28.5856 118.216C28.9435 117.853 29.2256 117.423 29.4157 116.95C29.6057 116.477 29.6999 115.971 29.6927 115.461V91.1023H37.3849V115.461C37.3777 115.971 37.4719 116.477 37.6619 116.95C37.852 117.423 38.1342 117.853 38.492 118.216C38.8499 118.579 39.2763 118.867 39.7465 119.064C40.2167 119.261 40.7214 119.362 41.2311 119.362C41.7408 119.362 42.2454 119.261 42.7156 119.064C43.1859 118.867 43.6123 118.579 43.9701 118.216C44.328 117.853 44.6102 117.423 44.8002 116.95C44.9903 116.477 45.0844 115.971 45.0772 115.461V82.128V62.3164L55.559 65.3111C56.378 65.5456 57.2516 65.5016 58.0429 65.1859L70.8634 60.0578C71.7101 59.7331 72.4149 59.1197 72.8533 58.3258C73.2917 57.532 73.4356 56.6088 73.2595 55.7192C73.0833 54.8296 72.5986 54.0309 71.8908 53.464C71.183 52.8971 70.2976 52.5985 69.391 52.6209C68.916 52.6332 68.4474 52.7333 68.0088 52.9164L56.4103 57.5538L39.7237 52.7912C39.358 52.6715 38.9765 52.6073 38.5919 52.6009ZM89.9488 52.6409C89.4392 52.6337 88.9332 52.7279 88.4602 52.9179C87.9873 53.108 87.5568 53.3901 87.1938 53.748C86.8309 54.1059 86.5427 54.5323 86.346 55.0025C86.1492 55.4727 86.0479 55.9774 86.0479 56.4871C86.0479 56.9968 86.1492 57.5014 86.346 57.9716C86.5427 58.4418 86.8309 58.8683 87.1938 59.2261C87.5568 59.584 87.9873 59.8661 88.4602 60.0562C88.9332 60.2463 89.4392 60.3404 89.9488 60.3332H97.6411C98.1508 60.3404 98.6568 60.2463 99.1298 60.0562C99.6027 59.8661 100.033 59.584 100.396 59.2261C100.759 58.8683 101.047 58.4418 101.244 57.9716C101.441 57.5014 101.542 56.9968 101.542 56.4871C101.542 55.9774 101.441 55.4727 101.244 55.0025C101.047 54.5323 100.759 54.1059 100.396 53.748C100.033 53.3901 99.6027 53.108 99.1298 52.9179C98.6568 52.7279 98.1508 52.6337 97.6411 52.6409H89.9488Z" fill="#F6D813"/>
</g>
<defs>
<linearGradient id="paint0_linear_904_247" x1="138.101" y1="144.252" x2="14.8912" y2="132.365" gradientUnits="userSpaceOnUse">
<stop stop-color="#24AC9D"/>
<stop offset="1" stop-color="#3B6FB5"/>
</linearGradient>
<clipPath id="clip0_904_247">
<rect width="144" height="144" fill="white"/>
</clipPath>
</defs>
</svg>
